<?xml version="1.0" encoding="UTF-8"?>
<!DOCTYPE svg PUBLIC "-//W3C//DTD SVG 1.1//EN" "http://www.w3.org/Graphics/SVG/1.1/DTD/svg11.dtd">
<!-- Creator: CorelDRAW X8 -->
<svg xmlns="http://www.w3.org/2000/svg" xml:space="preserve" width="33mm" height="33mm" version="1.1" style="shape-rendering:geometricPrecision; text-rendering:geometricPrecision; image-rendering:optimizeQuality; fill-rule:evenodd; clip-rule:evenodd"
viewBox="0 0 3300 3300"
 xmlns:xlink="http://www.w3.org/1999/xlink">
 <defs>
  <style type="text/css">
   <![CDATA[
    .fil0 {fill:none}
    .fil1 {fill:url(#id0);fill-rule:nonzero}
   ]]>
  </style>
  <linearGradient id="id0" gradientUnits="userSpaceOnUse" x1="2082.54" y1="455.02" x2="3800.71" y2="4311.29">
   <stop offset="0" style="stop-opacity:1; stop-color:#00437B"/>
   <stop offset="1" style="stop-opacity:1; stop-color:#00B8B0"/>
  </linearGradient>
 </defs>
 <g id="Слой_x0020_1">
  <metadata id="CorelCorpID_0Corel-Layer"/>
  <g id="_2052952024544">
   <rect class="fil0" width="3300" height="3300"/>
   <path class="fil1" d="M668 1401c93,0 181,19 261,54l144 -272 -127 -255c-17,4 -33,7 -47,10 -60,13 -89,29 -138,-22 -62,-63 -10,-159 76,-158 49,1 470,-8 486,4 65,45 -116,103 -278,143l106 213 1157 0c-21,-105 -39,-211 -53,-317 -70,22 -135,27 -197,14 -80,-16 -150,-64 -215,-147 -16,-22 -12,-53 9,-70 22,-17 53,-13 70,9 49,63 101,99 157,111 52,11 111,2 177,-23 8,-10 20,-17 34,-19 27,-3 52,17 55,44 27,232 74,463 132,694l2 5c49,-12 100,-18 153,-18 181,0 345,73 463,192 119,119 193,283 193,464 0,181 -74,345 -193,464 -118,118 -282,192 -463,192 -182,0 -345,-74 -464,-192 -119,-119 -192,-283 -192,-464 0,-181 73,-345 192,-464 61,-61 134,-110 216,-144l-3 -11c-15,-59 -30,-118 -43,-178l-720 808c-1,17 -11,32 -27,41 -16,7 -34,6 -48,-2l-221 0c-12,161 -82,306 -190,414 -119,118 -283,192 -464,192 -181,0 -345,-74 -463,-192 -119,-119 -193,-283 -193,-464 0,-181 74,-345 193,-464 118,-119 282,-192 463,-192zm1836 115c53,196 113,393 175,589 9,26 -6,55 -32,63 -27,8 -55,-6 -63,-33 -62,-195 -122,-391 -175,-588 -64,28 -122,68 -170,117 -101,100 -163,239 -163,393 0,153 62,292 163,393 100,100 239,163 393,163 153,0 292,-63 393,-163 100,-101 163,-240 163,-393 0,-154 -63,-293 -163,-393 -101,-101 -240,-163 -393,-163 -44,0 -87,5 -128,15zm-1303 -298l374 748 667 -748 -1041 0zm283 789l-357 -715 -110 209c42,27 81,57 115,92 108,108 178,253 190,414l162 0zm-262 100l-554 0c-27,0 -50,-23 -50,-50 0,-10 3,-19 8,-27l256 -486c-65,-28 -138,-43 -214,-43 -153,0 -292,62 -393,163 -100,100 -163,239 -163,393 0,153 63,292 163,393 101,100 240,163 393,163 154,0 293,-63 393,-163 90,-90 149,-210 161,-343zm-471 -100l471 0c-12,-134 -71,-254 -161,-343 -27,-28 -58,-53 -90,-74l-220 417z"/>
  </g>
 </g>
</svg>
