<?xml version="1.0" encoding="UTF-8"?>
<!DOCTYPE svg PUBLIC "-//W3C//DTD SVG 1.1//EN" "http://www.w3.org/Graphics/SVG/1.1/DTD/svg11.dtd">
<!-- Creator: CorelDRAW X8 -->
<svg xmlns="http://www.w3.org/2000/svg" xml:space="preserve" width="33mm" height="33mm" version="1.1" style="shape-rendering:geometricPrecision; text-rendering:geometricPrecision; image-rendering:optimizeQuality; fill-rule:evenodd; clip-rule:evenodd"
viewBox="0 0 3300 3300"
 xmlns:xlink="http://www.w3.org/1999/xlink">
 <defs>
  <style type="text/css">
   <![CDATA[
    .fil1 {fill:none}
    .fil0 {fill:url(#id0);fill-rule:nonzero}
   ]]>
  </style>
  <linearGradient id="id0" gradientUnits="userSpaceOnUse" x1="1724.19" y1="631.69" x2="3624.31" y2="4098.64">
   <stop offset="0" style="stop-opacity:1; stop-color:#00437B"/>
   <stop offset="1" style="stop-opacity:1; stop-color:#00B8B0"/>
  </linearGradient>
 </defs>
 <g id="Слой_x0020_1">
  <metadata id="CorelCorpID_0Corel-Layer"/>
  <g id="_2052956088096">
   <path class="fil0" d="M1529 1413c-31,-160 -95,-312 -256,-434 -161,-122 -418,-217 -835,-269l0 816c14,86 49,156 109,210 60,55 148,92 265,110l2050 0c2,-81 -9,-156 -49,-220 -48,-74 -137,-136 -298,-178l-979 0 -7 -35zm-187 -47c31,0 57,26 57,57 0,31 -26,56 -57,56 -31,0 -56,-25 -56,-56 0,-31 25,-57 56,-57zm-124 -191c31,0 56,25 56,56 0,31 -25,57 -56,57 -31,0 -57,-26 -57,-57 0,-31 26,-56 57,-56zm-157 -137c31,0 56,25 56,56 0,31 -25,57 -56,57 -32,0 -57,-26 -57,-57 0,-31 25,-56 57,-56zm-188 -92c31,0 56,25 56,56 0,32 -25,57 -56,57 -31,0 -57,-25 -57,-57 0,-31 26,-56 57,-56zm-206 -56c31,0 56,25 56,56 0,31 -25,56 -56,56 -32,0 -57,-25 -57,-56 0,-31 25,-56 57,-56zm2279 1004c-11,225 -81,399 -202,529 -121,130 -291,216 -504,263l-5 1 -1884 0 0 -322 475 0 0 -433 -19 0 -3 -1c-137,-20 -241,-65 -315,-131 -76,-68 -120,-157 -137,-265l-1 -4 0 -918 48 6c463,52 747,156 925,291 171,129 245,286 282,452l919 0 6 2c188,48 295,124 354,216 60,94 69,201 61,311l0 3zm-2034 471l115 0 0 -433 -115 0 0 433zm201 0l659 0 0 -433 -659 0 0 433zm746 0l114 0 0 -433 -114 0 0 433zm200 0l168 0c96,-14 186,-44 259,-113 69,-64 125,-164 161,-320l-588 0 0 433zm676 -433c-40,185 -107,305 -190,383 -89,84 -196,119 -308,136l-3 1 -1796 0 0 148 1788 0c194,-43 348,-120 455,-236 100,-107 161,-250 176,-432l-122 0z"/>
   <rect class="fil1" width="3300" height="3300"/>
  </g>
 </g>
</svg>
