<?xml version="1.0" encoding="UTF-8"?>
<!DOCTYPE svg PUBLIC "-//W3C//DTD SVG 1.1//EN" "http://www.w3.org/Graphics/SVG/1.1/DTD/svg11.dtd">
<!-- Creator: CorelDRAW X8 -->
<svg xmlns="http://www.w3.org/2000/svg" xml:space="preserve" width="33mm" height="33mm" version="1.1" style="shape-rendering:geometricPrecision; text-rendering:geometricPrecision; image-rendering:optimizeQuality; fill-rule:evenodd; clip-rule:evenodd"
viewBox="0 0 3300 3300"
 xmlns:xlink="http://www.w3.org/1999/xlink">
 <defs>
  <style type="text/css">
   <![CDATA[
    .fil1 {fill:none}
    .fil0 {fill:url(#id0);fill-rule:nonzero}
   ]]>
  </style>
  <linearGradient id="id0" gradientUnits="userSpaceOnUse" x1="1342.72" y1="732.37" x2="3805.48" y2="4226.97">
   <stop offset="0" style="stop-opacity:1; stop-color:#00437B"/>
   <stop offset="1" style="stop-opacity:1; stop-color:#00B8B0"/>
  </linearGradient>
 </defs>
 <g id="Слой_x0020_1">
  <metadata id="CorelCorpID_0Corel-Layer"/>
  <path class="fil0" d="M2362 2325l-1884 20 0 -402 44 0c357,0 668,-2 978,-4 339,-1 678,-3 975,-3 70,-13 115,-46 170,-86l9 -6c31,-23 59,-31 84,-29 26,2 47,15 61,36 12,16 19,37 21,61 6,53 -9,126 -48,195 -42,75 -99,127 -165,162 -73,38 -157,55 -245,56zm-279 -1224l-47 0 0 -301c-11,11 -26,22 -45,33 -18,11 -35,19 -50,24l0 -46c27,-12 50,-27 70,-45 19,-17 34,-34 42,-51l30 0 0 386zm-943 198l75 -6c5,37 18,64 38,82 20,19 45,28 74,28 34,0 64,-13 87,-39 24,-26 36,-60 36,-103 0,-41 -12,-73 -34,-96 -23,-24 -53,-36 -90,-36 -23,0 -44,5 -62,16 -19,11 -33,24 -44,41l-67 -10 56 -299 288 0 0 69 -231 0 -31 157c35,-25 71,-37 110,-37 50,0 93,17 128,53 35,35 52,80 52,135 0,53 -15,98 -46,137 -37,47 -88,70 -152,70 -53,0 -96,-14 -130,-44 -33,-30 -52,-69 -57,-118zm898 -852c127,0 242,52 325,135 84,84 135,199 135,326 0,31 -3,62 -9,93 -22,106 -80,198 -160,263 -81,65 -182,104 -291,104l0 0c-30,0 -61,-3 -92,-10l17 -84c25,5 50,7 75,7l0 0c88,0 171,-31 236,-84 65,-53 112,-127 130,-214 5,-24 7,-49 7,-75 0,-103 -41,-197 -109,-264 -67,-68 -161,-110 -264,-110 -60,0 -116,14 -166,39 -51,26 -96,63 -131,109l-69 -53c43,-56 98,-102 162,-134 62,-30 131,-48 204,-48zm-701 159c156,0 297,63 399,165 102,102 165,243 165,399 0,155 -63,296 -165,398 -102,103 -243,166 -399,166 -155,0 -296,-63 -398,-166 -102,-102 -165,-243 -165,-398 0,-156 63,-297 165,-399 102,-102 243,-165 398,-165zm338 227c-87,-87 -206,-140 -338,-140 -131,0 -251,53 -337,140 -86,86 -140,205 -140,337 0,132 54,251 140,337 86,86 206,140 337,140 132,0 251,-54 338,-140 86,-86 139,-205 139,-337 0,-132 -53,-251 -139,-337zm687 1999l-1884 21 0 -402 44 0c357,0 668,-2 978,-4 339,-2 678,-4 975,-4 70,-13 115,-45 170,-85l9 -7c31,-22 59,-31 84,-29 26,3 47,15 61,36 12,17 19,38 21,62 6,52 -9,126 -48,194 -42,75 -99,128 -165,163 -73,38 -157,54 -245,55zm-1025 -664c-24,0 -43,-20 -43,-44 0,-24 19,-43 43,-43l501 0c24,0 44,19 44,43 0,24 -20,44 -44,44l-501 0zm0 510c-24,0 -43,-20 -43,-44 0,-24 19,-43 43,-43l501 0c24,0 44,19 44,43 0,24 -20,44 -44,44l-501 0zm-772 87l1797 -19c74,-1 144,-14 204,-46 52,-27 97,-69 130,-128 30,-53 42,-106 38,-143 -1,-9 -3,-16 -5,-20 -5,1 -13,4 -24,12l-9 7c-66,47 -118,85 -210,101l-4 1 -3 0c-358,0 -668,2 -979,4 -324,1 -648,3 -935,3l0 228zm0 -508l1797 -19c74,-1 144,-14 204,-46 52,-27 97,-68 130,-128 30,-52 42,-106 38,-142 -1,-10 -3,-16 -5,-21 -5,1 -13,5 -24,13l-9 6c-66,48 -118,86 -210,102l-4 0 -3 0c-358,0 -668,2 -979,4 -324,2 -648,4 -935,4l0 227z"/>
  <rect class="fil1" width="3300" height="3300"/>
 </g>
</svg>
