<?xml version="1.0" encoding="UTF-8"?>
<!DOCTYPE svg PUBLIC "-//W3C//DTD SVG 1.1//EN" "http://www.w3.org/Graphics/SVG/1.1/DTD/svg11.dtd">
<!-- Creator: CorelDRAW X8 -->
<svg xmlns="http://www.w3.org/2000/svg" xml:space="preserve" width="33mm" height="33mm" version="1.1" style="shape-rendering:geometricPrecision; text-rendering:geometricPrecision; image-rendering:optimizeQuality; fill-rule:evenodd; clip-rule:evenodd"
viewBox="0 0 3300 3300"
 xmlns:xlink="http://www.w3.org/1999/xlink">
 <defs>
  <style type="text/css">
   <![CDATA[
    .fil1 {fill:none}
    .fil0 {fill:url(#id0);fill-rule:nonzero}
   ]]>
  </style>
  <linearGradient id="id0" gradientUnits="userSpaceOnUse" x1="1100.68" y1="993.77" x2="3694.14" y2="3967.25">
   <stop offset="0" style="stop-opacity:1; stop-color:#00437B"/>
   <stop offset="1" style="stop-opacity:1; stop-color:#00B8B0"/>
  </linearGradient>
 </defs>
 <g id="Слой_x0020_1">
  <metadata id="CorelCorpID_0Corel-Layer"/>
  <g id="_2052952037920">
   <path class="fil0" d="M2213 2815c0,22 -20,39 -46,39 -25,0 -45,-18 -45,-39l1 -173 -239 1c-25,0 -46,-17 -46,-39 0,-21 20,-39 45,-39l241 -1 15 -2077c-1,-13 6,-27 21,-35 12,-6 27,-7 40,-3 246,61 357,191 388,307 18,67 9,131 -15,174 -31,56 -86,84 -149,64 -53,-17 -109,-75 -152,-191 -13,-38 -23,-69 -33,-97l-10 -32 -14 1890 239 -1c25,0 46,18 46,39 0,22 -20,39 -45,39l-241 1 -1 173zm-1035 0c0,21 -20,39 -45,39 -26,0 -46,-17 -46,-39l-1 -173 -241 -1c-25,0 -45,-17 -45,-39 0,-21 21,-39 46,-38l239 0 -14 -1890 -10 32c-10,28 -20,59 -33,97 -43,116 -99,174 -152,191 -63,20 -118,-8 -149,-64 -24,-43 -33,-107 -15,-174 31,-116 142,-246 388,-307 13,-4 28,-3 40,3 15,8 22,22 21,35l15 2078 241 0c25,1 45,18 45,39 0,22 -21,39 -46,39l-239 -1 1 173zm-158 -2257c-134,56 -198,140 -219,215 -13,50 -8,95 9,124 9,18 22,28 34,24 29,-9 63,-51 96,-141 13,-34 23,-66 33,-95 16,-48 29,-88 47,-127zm1479 215c-21,-75 -85,-159 -219,-215 18,39 31,79 47,127 10,29 20,61 33,95 33,90 67,132 96,141 12,4 25,-6 34,-24 17,-29 22,-74 9,-124z"/>
   <rect class="fil1" width="3300" height="3300"/>
  </g>
 </g>
</svg>
