<?xml version="1.0" encoding="UTF-8"?>
<!DOCTYPE svg PUBLIC "-//W3C//DTD SVG 1.1//EN" "http://www.w3.org/Graphics/SVG/1.1/DTD/svg11.dtd">
<!-- Creator: CorelDRAW X8 -->
<svg xmlns="http://www.w3.org/2000/svg" xml:space="preserve" width="33mm" height="33mm" version="1.1" style="shape-rendering:geometricPrecision; text-rendering:geometricPrecision; image-rendering:optimizeQuality; fill-rule:evenodd; clip-rule:evenodd"
viewBox="0 0 3300 3300"
 xmlns:xlink="http://www.w3.org/1999/xlink">
 <defs>
  <style type="text/css">
   <![CDATA[
    .fil0 {fill:none}
    .fil1 {fill:url(#id0);fill-rule:nonzero}
   ]]>
  </style>
  <linearGradient id="id0" gradientUnits="userSpaceOnUse" x1="1234.23" y1="243.91" x2="2732.48" y2="3669.76">
   <stop offset="0" style="stop-opacity:1; stop-color:#00437B"/>
   <stop offset="1" style="stop-opacity:1; stop-color:#00B8B0"/>
  </linearGradient>
 </defs>
 <g id="Слой_x0020_1">
  <metadata id="CorelCorpID_0Corel-Layer"/>
  <rect class="fil0" width="3300" height="3300"/>
  <path class="fil1" d="M760 1497c22,9 43,22 59,39 30,30 49,71 49,117l0 880c0,45 -19,87 -49,117l0 0c-30,30 -71,48 -117,48 -45,0 -87,-18 -117,-48l0 0c-18,-19 -32,-42 -41,-67 -135,-67 -221,-168 -268,-279 -38,-94 -49,-194 -37,-289 13,-94 48,-183 102,-253 51,-66 118,-115 198,-135 5,-35 22,-67 46,-91l0 0c21,-20 46,-35 74,-43 49,-269 167,-479 322,-628 180,-172 412,-262 647,-263 240,-2 485,86 676,261 162,149 287,360 337,630 28,7 54,23 74,43 24,24 41,56 46,91 80,20 147,69 198,135 54,70 89,159 102,253 12,95 1,195 -37,289 -47,111 -133,212 -268,279 -9,25 -23,48 -41,67l0 0c-30,30 -72,48 -117,48 -46,0 -87,-18 -117,-48l0 0c-30,-30 -49,-72 -49,-117l0 -880c0,-46 19,-87 49,-117l0 0c17,-17 37,-30 59,-38 -47,-241 -158,-429 -303,-561 -173,-158 -392,-237 -608,-236 -211,2 -418,82 -579,236 -139,133 -244,320 -290,560zm2004 967c81,-53 136,-123 167,-199 32,-76 41,-159 31,-237 -10,-77 -39,-149 -82,-205 -32,-41 -71,-73 -116,-91l0 732zm-166 -877c-18,0 -35,8 -47,19l0 1c-12,11 -19,28 -19,46l0 880c0,18 7,34 19,46l0 0c12,12 29,19 47,19 18,0 34,-7 46,-19l0 0c12,-12 20,-28 20,-46l0 -880c0,-18 -8,-35 -20,-46 -12,-12 -28,-20 -46,-20zm-2062 877l0 -732c-45,18 -84,50 -116,91 -43,56 -72,128 -82,205 -10,78 -1,161 31,237 31,76 86,146 167,199zm213 -857c-12,-12 -29,-20 -47,-20 -18,0 -34,8 -46,19l0 1c-12,11 -20,28 -20,46l0 880c0,18 8,34 20,46l0 0c12,12 28,19 46,19 18,0 35,-7 47,-19l0 0c12,-12 19,-28 19,-46l0 -880c0,-18 -7,-35 -19,-46z"/>
 </g>
</svg>
