<?xml version="1.0" encoding="UTF-8"?>
<!DOCTYPE svg PUBLIC "-//W3C//DTD SVG 1.1//EN" "http://www.w3.org/Graphics/SVG/1.1/DTD/svg11.dtd">
<!-- Creator: CorelDRAW X8 -->
<svg xmlns="http://www.w3.org/2000/svg" xml:space="preserve" width="33mm" height="33mm" version="1.1" style="shape-rendering:geometricPrecision; text-rendering:geometricPrecision; image-rendering:optimizeQuality; fill-rule:evenodd; clip-rule:evenodd"
viewBox="0 0 3300 3300"
 xmlns:xlink="http://www.w3.org/1999/xlink">
 <defs>
  <style type="text/css">
   <![CDATA[
    .fil0 {fill:none}
    .fil1 {fill:url(#id0);fill-rule:nonzero}
   ]]>
  </style>
  <linearGradient id="id0" gradientUnits="userSpaceOnUse" x1="1201.85" y1="267.35" x2="2738.59" y2="3645.78">
   <stop offset="0" style="stop-opacity:1; stop-color:#00437B"/>
   <stop offset="1" style="stop-opacity:1; stop-color:#00B8B0"/>
  </linearGradient>
 </defs>
 <g id="Слой_x0020_1">
  <metadata id="CorelCorpID_0Corel-Layer"/>
  <rect class="fil0" width="3300" height="3300"/>
  <path class="fil1" d="M441 603l2418 0c42,0 79,16 107,44 27,27 44,65 44,106l0 1794c0,41 -17,79 -44,106 -28,28 -65,44 -107,44l-2418 0c-42,0 -79,-16 -107,-44 -27,-27 -44,-65 -44,-106l0 -1794c0,-41 17,-79 44,-106 28,-28 65,-44 107,-44zm1415 1060l-179 -85 -180 -85 0 170 0 170 180 -85 179 -85zm-1328 642l0 0c19,0 34,15 34,34l0 168c0,18 -15,33 -34,33l0 0c-18,0 -33,-15 -33,-33l0 -168c0,-19 15,-34 33,-34zm2244 0l0 0c18,0 34,15 34,34l0 168c0,18 -16,33 -34,33l0 0c-19,0 -34,-15 -34,-33l0 -168c0,-19 15,-34 34,-34zm-226 0l0 0c19,0 34,15 34,34l0 168c0,18 -15,33 -34,33l0 0c-18,0 -33,-15 -33,-33l0 -168c0,-19 15,-34 33,-34zm-227 0l0 0c19,0 34,15 34,34l0 168c0,18 -15,33 -34,33l0 0c-18,0 -33,-15 -33,-33l0 -168c0,-19 15,-34 33,-34zm-220 0l0 0c18,0 33,15 33,34l0 168c0,18 -15,33 -33,33l0 0c-19,0 -34,-15 -34,-33l0 -168c0,-19 15,-34 34,-34zm-227 0l0 0c19,0 34,15 34,34l0 168c0,18 -15,33 -34,33l0 0c-18,0 -33,-15 -33,-33l0 -168c0,-19 15,-34 33,-34zm-225 0l0 0c19,0 34,15 34,34l0 168c0,18 -15,33 -34,33l0 0c-18,0 -33,-15 -33,-33l0 -168c0,-19 15,-34 33,-34zm-222 0l0 0c19,0 34,15 34,34l0 168c0,18 -15,33 -34,33l0 0c-18,0 -34,-15 -34,-33l0 -168c0,-19 16,-34 34,-34zm-225 0l0 0c19,0 34,15 34,34l0 168c0,18 -15,33 -34,33l0 0c-18,0 -33,-15 -33,-33l0 -168c0,-19 15,-34 33,-34zm-225 0l0 0c19,0 34,15 34,34l0 168c0,18 -15,33 -34,33l0 0c-18,0 -33,-15 -33,-33l0 -168c0,-19 15,-34 33,-34zm-225 0l0 0c19,0 34,15 34,34l0 168c0,18 -15,33 -34,33l0 0c-18,0 -33,-15 -33,-33l0 -168c0,-19 15,-34 33,-34zm-214 -1535l0 0c19,0 34,15 34,33l0 168c0,19 -15,34 -34,34l0 0c-18,0 -34,-15 -34,-34l0 -168c0,-18 16,-33 34,-33zm2244 0l0 0c18,0 33,15 33,33l0 168c0,19 -15,34 -33,34l0 0c-19,0 -34,-15 -34,-34l0 -168c0,-18 15,-33 34,-33zm-226 0l0 0c19,0 34,15 34,33l0 168c0,19 -15,34 -34,34l0 0c-18,0 -33,-15 -33,-34l0 -168c0,-18 15,-33 33,-33zm-227 0l0 0c19,0 34,15 34,33l0 168c0,19 -15,34 -34,34l0 0c-18,0 -33,-15 -33,-34l0 -168c0,-18 15,-33 33,-33zm-221 0l0 0c19,0 34,15 34,33l0 168c0,19 -15,34 -34,34l0 0c-18,0 -33,-15 -33,-34l0 -168c0,-18 15,-33 33,-33zm-226 0l0 0c19,0 34,15 34,33l0 168c0,19 -15,34 -34,34l0 0c-18,0 -33,-15 -33,-34l0 -168c0,-18 15,-33 33,-33zm-225 0l0 0c19,0 34,15 34,33l0 168c0,19 -15,34 -34,34l0 0c-18,0 -33,-15 -33,-34l0 -168c0,-18 15,-33 33,-33zm-222 0l0 0c19,0 34,15 34,33l0 168c0,19 -15,34 -34,34l0 0c-18,0 -34,-15 -34,-34l0 -168c0,-18 16,-33 34,-33zm-225 0l0 0c19,0 34,15 34,33l0 168c0,19 -15,34 -34,34l0 0c-18,0 -34,-15 -34,-34l0 -168c0,-18 16,-33 34,-33zm-225 0l0 0c19,0 34,15 34,33l0 168c0,19 -15,34 -34,34l0 0c-18,0 -33,-15 -33,-34l0 -168c0,-18 15,-33 33,-33zm-225 0l0 0c19,0 34,15 34,33l0 168c0,19 -15,34 -34,34l0 0c-18,0 -33,-15 -33,-34l0 -168c0,-18 15,-33 33,-33zm1622 388l0 983 439 0c28,0 50,22 50,50 0,28 -22,50 -50,50l-481 0c-3,1 -5,1 -8,1 -3,0 -6,0 -8,-1l-1339 0 -477 0c-27,0 -50,-22 -50,-50 0,-28 23,-50 50,-50l427 0 0 -983 -434 0c-28,0 -50,-23 -50,-50 0,-28 22,-50 50,-50l484 0 1829 0c27,0 50,22 50,50 0,27 -23,50 -50,50l-432 0zm-100 983l0 -983 -1247 0 0 983 1247 0zm579 -1438l-2418 0c-14,0 -27,5 -36,14 -9,10 -15,22 -15,36l0 1794c0,14 6,26 15,36 9,9 22,14 36,14l2418 0c14,0 27,-5 36,-14 9,-10 15,-22 15,-36l0 -1794c0,-14 -6,-26 -15,-36 -9,-9 -22,-14 -36,-14z"/>
 </g>
</svg>
