<svg width="20" height="20" viewBox="0 0 20 20" version="1.1" xmlns="http://www.w3.org/2000/svg"><path fill="#00B8B0" fill-rule="evenodd" d="M 19 10C 19 14.9707 14.9707 19 10 19C 5.0293 19 1 14.9707 1 10C 1 5.0293 5.0293 1 10 1C 14.9707 1 19 5.0293 19 10ZM 20 10C 20 15.5228 15.5228 20 10 20C 4.47721 20 0 15.5228 0 10C 0 4.47721 4.47721 0 10 0C 15.5228 0 20 4.47721 20 10ZM 7.32292 6.33594C 8.18685 5.34408 9.14648 4.86393 10.4108 4.86393C 12.1868 4.86393 13.1784 5.95215 13.1784 7.19987C 13.1784 8.44271 12.4238 8.972 11.681 9.49349C 10.9603 9.99935 10.2507 10.4977 10.2507 11.6322L 10.2507 12.512L 9.33854 12.512L 9.33854 11.568C 9.33854 10.1165 10.1732 9.54232 10.9414 9.01367C 11.5964 8.56315 12.2025 8.14616 12.2025 7.24805C 12.2025 6.27214 11.4824 5.66406 10.3626 5.66406C 9.40234 5.66406 8.68294 6.0319 7.96289 6.84798L 7.32292 6.33594ZM 9.06641 15.4079C 9.06641 14.9919 9.38672 14.6559 9.83464 14.6559C 10.2826 14.6559 10.6029 14.9919 10.6029 15.4079C 10.6029 15.8398 10.2826 16.1761 9.83464 16.1761C 9.38672 16.1761 9.06641 15.8398 9.06641 15.4079Z"/></svg>