<svg width="45" height="54" viewBox="0 0 45 54" version="1.1" xmlns="http://www.w3.org/2000/svg" xmlns:xlink="http://www.w3.org/1999/xlink">
    <g transform="translate(-3167 -3333)">
        <g>
            <use xlink:href="#popular-badge" transform="translate(3167.98 3333)" fill="#00B8B0"/>
        </g>
        <g>
            <use xlink:href="#popular-star" transform="translate(3175.97 3342)" fill="#FFFFFF"/>
        </g>
    </g>
    <defs>
        <path id="popular-badge" d="M 0 0L 43.9541 0L 43.9541 54L 21.3307 42.3243L 0 54L 0 0Z"/>
        <path id="popular-star" d="M 12.5958 1.7386C 12.9673 1.01289 14.0045 1.01289 14.376 1.7386L 17.2125 7.27886C 17.361 7.56881 17.6413 7.76828 17.9639 7.81347L 24.2444 8.69319C 25.076 8.80968 25.4024 9.83727 24.7905 10.4123L 20.2935 14.6378C 20.0473 14.8691 19.9345 15.2091 19.9937 15.5417L 21.0617 21.5441C 21.2062 22.3561 20.3608 22.9841 19.6251 22.6113L 13.938 19.7291C 13.6538 19.5851 13.318 19.5851 13.0339 19.7291L 7.34675 22.6113C 6.61103 22.9841 5.76568 22.3561 5.91016 21.5441L 6.97813 15.5417C 7.03731 15.2091 6.92455 14.8691 6.67836 14.6378L 2.18139 10.4123C 1.56944 9.83727 1.89584 8.80968 2.72744 8.69319L 9.00791 7.81347C 9.3305 7.76828 9.61087 7.56881 9.75931 7.27886L 12.5958 1.7386Z"/>
    </defs>
</svg>