<?xml version="1.0" encoding="UTF-8"?>
<!DOCTYPE svg PUBLIC "-//W3C//DTD SVG 1.1//EN" "http://www.w3.org/Graphics/SVG/1.1/DTD/svg11.dtd">
<!-- Creator: CorelDRAW X8 -->
<svg xmlns="http://www.w3.org/2000/svg" xml:space="preserve" width="20mm" height="20mm" version="1.1" style="shape-rendering:geometricPrecision; text-rendering:geometricPrecision; image-rendering:optimizeQuality; fill-rule:evenodd; clip-rule:evenodd"
viewBox="0 0 2000 2000"
 xmlns:xlink="http://www.w3.org/1999/xlink">
 <defs>
  <style type="text/css">
   <![CDATA[
    .fil1 {fill:none}
    .fil0 {fill:#00437B}
   ]]>
  </style>
 </defs>
 <g id="Слой_x0020_1">
  <metadata id="CorelCorpID_0Corel-Layer"/>
  <path class="fil0" d="M1000 50l252 342 419 -63 -63 419 342 252 -342 252 63 419 -419 -63 -252 342 -252 -342 -419 63 63 -419 -342 -252 342 -252 -63 -419 419 63 252 -342zm-1 499c250,0 452,202 452,452 0,249 -202,452 -452,452 -250,0 -452,-203 -452,-452 0,-250 202,-452 452,-452z"/>
  <rect class="fil1" width="2000" height="2000"/>
 </g>
</svg>
