<?xml version="1.0" encoding="UTF-8"?>
<!DOCTYPE svg PUBLIC "-//W3C//DTD SVG 1.1//EN" "http://www.w3.org/Graphics/SVG/1.1/DTD/svg11.dtd">
<!-- Creator: CorelDRAW X8 -->
<svg xmlns="http://www.w3.org/2000/svg" xml:space="preserve" width="20mm" height="20mm" version="1.1" style="shape-rendering:geometricPrecision; text-rendering:geometricPrecision; image-rendering:optimizeQuality; fill-rule:evenodd; clip-rule:evenodd"
viewBox="0 0 2000 2000"
 xmlns:xlink="http://www.w3.org/1999/xlink">
 <defs>
  <style type="text/css">
   <![CDATA[
    .fil1 {fill:none}
    .fil0 {fill:#00437B}
   ]]>
  </style>
 </defs>
 <g id="Слой_x0020_1">
  <metadata id="CorelCorpID_0Corel-Layer"/>
  <path class="fil0" d="M138 1686c74,-373 243,-473 586,-339 174,24 271,-65 288,-236 15,-154 17,-307 31,-461 50,-198 178,-240 280,-258 124,-23 318,34 419,172 150,204 166,557 12,846 -87,163 -229,323 -501,417 -183,58 -360,48 -532,-46 -70,-58 -140,-117 -210,-175 -92,-49 -120,52 -134,130 -17,91 -233,38 -239,-50zm978 -1549c-82,0 -164,0 -246,0 -24,205 -4,418 91,603 25,-143 32,-261 162,-338 -2,-89 -5,-177 -7,-265z"/>
  <rect class="fil1" width="2000" height="2000"/>
 </g>
</svg>
