<?xml version="1.0" encoding="UTF-8"?>
<!DOCTYPE svg PUBLIC "-//W3C//DTD SVG 1.1//EN" "http://www.w3.org/Graphics/SVG/1.1/DTD/svg11.dtd">
<!-- Creator: CorelDRAW X8 -->
<svg xmlns="http://www.w3.org/2000/svg" xml:space="preserve" width="20mm" height="20mm" version="1.1" style="shape-rendering:geometricPrecision; text-rendering:geometricPrecision; image-rendering:optimizeQuality; fill-rule:evenodd; clip-rule:evenodd"
viewBox="0 0 2000 2000"
 xmlns:xlink="http://www.w3.org/1999/xlink">
 <defs>
  <style type="text/css">
   <![CDATA[
    .fil0 {fill:none}
    .fil1 {fill:#00437B;fill-rule:nonzero}
   ]]>
  </style>
 </defs>
 <g id="Слой_x0020_1">
  <metadata id="CorelCorpID_0Corel-Layer"/>
  <rect class="fil0" width="2000" height="2000"/>
  <path class="fil1" d="M1000 439c193,-212 417,-239 600,-140 315,169 321,521 157,801 -114,194 -338,391 -757,656 -313,-188 -563,-387 -728,-593 -40,-50 -69,-103 -90,-158l251 0c13,0 24,-7 30,-17l44 -65 75 186c7,18 28,27 46,19 11,-4 19,-14 21,-25l88 -384 106 550c4,19 22,32 41,28 13,-2 23,-11 27,-23l137 -338 72 173c8,18 28,27 46,19 7,-2 12,-7 16,-13l82 -110 224 0c19,0 35,-16 35,-35 0,-20 -16,-36 -35,-36l-242 0 0 0c-11,0 -21,5 -28,15l-57 76 -81 -196c-3,-8 -10,-16 -19,-19 -18,-7 -39,1 -46,19l-125 310 -116 -598c-2,-13 -13,-25 -27,-28 -19,-4 -37,8 -42,27l-100 438 -56 -141c-3,-7 -7,-13 -14,-18 -16,-11 -38,-7 -49,10l-72 105 -254 0c-22,-82 -26,-163 -22,-228 32,-451 615,-624 862,-267z"/>
 </g>
</svg>
