<?xml version="1.0" encoding="UTF-8"?>
<!DOCTYPE svg PUBLIC "-//W3C//DTD SVG 1.1//EN" "http://www.w3.org/Graphics/SVG/1.1/DTD/svg11.dtd">
<!-- Creator: CorelDRAW X8 -->
<svg xmlns="http://www.w3.org/2000/svg" xml:space="preserve" width="20mm" height="20mm" version="1.1" style="shape-rendering:geometricPrecision; text-rendering:geometricPrecision; image-rendering:optimizeQuality; fill-rule:evenodd; clip-rule:evenodd"
viewBox="0 0 2000 2000"
 xmlns:xlink="http://www.w3.org/1999/xlink">
 <defs>
  <style type="text/css">
   <![CDATA[
    .fil1 {fill:none}
    .fil0 {fill:#00437B}
   ]]>
  </style>
 </defs>
 <g id="Слой_x0020_1">
  <metadata id="CorelCorpID_0Corel-Layer"/>
  <path class="fil0" d="M884 1461c2,-75 6,-138 5,-276 -65,23 -109,27 -184,134 9,41 12,95 7,146 -4,47 -16,93 -37,126 -8,13 -25,16 -38,8 -12,-8 -16,-24 -8,-37 16,-25 25,-62 29,-102 2,-21 3,-43 2,-64 -21,33 -42,60 -64,80 -24,22 -49,31 -73,39 -36,13 -72,25 -94,118 -4,15 -18,24 -33,20 -15,-3 -24,-18 -20,-32 29,-122 79,-139 130,-157 18,-6 37,-13 53,-28 25,-22 49,-57 75,-101 -18,-2 -34,-3 -49,-2 -25,1 -47,5 -69,11 -22,5 -43,12 -64,22 -22,10 -45,25 -72,46 -11,9 -28,7 -38,-5 -9,-12 -7,-29 5,-38 29,-24 56,-40 81,-52 26,-12 50,-20 75,-26 25,-6 50,-11 80,-12 24,-1 50,0 79,5 12,-22 25,-45 38,-70 -18,-14 -34,-28 -48,-42 -34,-13 -66,-20 -101,-14 -40,7 -86,29 -149,76 -12,9 -29,6 -38,-6 -8,-11 -6,-28 6,-37 70,-53 124,-79 172,-87 21,-3 41,-4 60,-1 -3,-7 -6,-15 -9,-22 -20,-57 -16,-120 13,-199 5,-14 20,-22 34,-17 14,5 22,21 17,35 -24,67 -28,119 -13,163 14,39 44,74 89,109 26,-22 155,-189 154,-219 -3,-89 -9,-166 -19,-213 -36,-159 -128,-230 -337,-26 -164,161 -538,786 -368,1010 67,88 213,77 400,58 192,-49 302,-154 321,-321zm42 -1256l141 0c10,0 18,8 18,19l0 82 -177 0 0 -82c0,-11 8,-19 18,-19zm-15 174l178 0 0 72 -178 0 0 -72zm0 137l178 0 0 72 -178 0 0 -72zm205 945c-2,-75 -6,-138 -5,-276 65,23 109,27 184,134 -9,41 -12,95 -7,146 4,47 16,93 37,126 8,13 25,16 38,8 12,-8 16,-24 8,-37 -16,-25 -25,-62 -29,-102 -2,-21 -3,-43 -2,-64 21,33 42,60 64,80 24,22 49,31 73,39 36,13 72,25 94,118 4,15 18,24 33,20 15,-3 24,-18 20,-32 -29,-122 -79,-139 -130,-157 -18,-6 -37,-13 -53,-28 -25,-22 -49,-57 -75,-101 18,-2 34,-3 49,-2 25,1 47,5 69,11 22,5 43,12 64,22 22,10 45,25 72,46 11,9 28,7 38,-5 9,-12 7,-29 -5,-38 -29,-24 -56,-40 -81,-52 -26,-12 -50,-20 -75,-26 -25,-6 -50,-11 -80,-12 -24,-1 -50,0 -79,5 -12,-22 -25,-45 -38,-70 18,-14 34,-28 48,-42 34,-13 66,-20 101,-14 40,7 86,29 149,76 12,9 29,6 38,-6 8,-11 6,-28 -6,-37 -70,-53 -124,-79 -172,-87 -21,-3 -41,-4 -60,-1 3,-7 6,-15 9,-22 20,-57 16,-120 -13,-199 -5,-14 -20,-22 -34,-17 -14,5 -22,21 -17,35 24,67 28,119 13,163 -14,39 -44,74 -89,109 -26,-22 -155,-189 -154,-219 3,-89 9,-166 19,-213 36,-159 128,-230 337,-26 164,161 538,786 368,1010 -67,88 -213,77 -400,58 -192,-49 -302,-154 -321,-321zm-202 -560c0,49 -14,61 -25,81 0,61 0,123 0,184 37,-37 74,-74 111,-111 37,37 74,74 111,111 0,-61 0,-123 0,-184 -11,-20 -25,-32 -25,-81 0,-82 0,-165 0,-247 -29,0 -57,0 -86,0 -29,0 -57,0 -86,0 0,82 0,165 0,247z"/>
  <rect class="fil1" width="2000" height="2000"/>
 </g>
</svg>
