<?xml version="1.0" encoding="UTF-8"?>
<!DOCTYPE svg PUBLIC "-//W3C//DTD SVG 1.1//EN" "http://www.w3.org/Graphics/SVG/1.1/DTD/svg11.dtd">
<!-- Creator: CorelDRAW X8 -->
<svg xmlns="http://www.w3.org/2000/svg" xml:space="preserve" width="20mm" height="20mm" version="1.1" style="shape-rendering:geometricPrecision; text-rendering:geometricPrecision; image-rendering:optimizeQuality; fill-rule:evenodd; clip-rule:evenodd"
viewBox="0 0 2000 2000"
 xmlns:xlink="http://www.w3.org/1999/xlink">
 <defs>
  <style type="text/css">
   <![CDATA[
    .fil1 {fill:none}
    .fil0 {fill:#00437B}
   ]]>
  </style>
 </defs>
 <g id="Слой_x0020_1">
  <metadata id="CorelCorpID_0Corel-Layer"/>
  <path class="fil0" d="M1398 796c-138,304 -322,516 -549,666l0 0c-159,106 -312,201 -462,308 -79,-31 -129,-50 -95,-94 149,-27 343,-123 455,-216 -507,-199 -298,-735 53,-911 348,-175 610,-239 739,-319 157,336 226,635 147,921 -122,435 -528,724 -771,385 249,-193 359,-352 483,-740z"/>
  <rect class="fil1" width="2000" height="2000"/>
 </g>
</svg>
