<?xml version="1.0" encoding="UTF-8"?>
<!DOCTYPE svg PUBLIC "-//W3C//DTD SVG 1.1//EN" "http://www.w3.org/Graphics/SVG/1.1/DTD/svg11.dtd">
<!-- Creator: CorelDRAW X8 -->
<svg xmlns="http://www.w3.org/2000/svg" xml:space="preserve" width="20mm" height="20mm" version="1.1" style="shape-rendering:geometricPrecision; text-rendering:geometricPrecision; image-rendering:optimizeQuality; fill-rule:evenodd; clip-rule:evenodd"
viewBox="0 0 2000 2000"
 xmlns:xlink="http://www.w3.org/1999/xlink">
 <defs>
  <style type="text/css">
   <![CDATA[
    .fil1 {fill:none}
    .fil0 {fill:#00437B}
   ]]>
  </style>
 </defs>
 <g id="Слой_x0020_1">
  <metadata id="CorelCorpID_0Corel-Layer"/>
  <path class="fil0" d="M588 719c-19,-4 -31,-22 -27,-41 4,-20 23,-32 42,-28 44,10 85,3 117,-18 33,-21 58,-56 69,-101 5,-19 24,-30 43,-26 19,5 30,24 25,43 -15,62 -51,113 -99,143 -48,31 -107,42 -170,28zm824 0c19,-4 31,-22 27,-41 -4,-20 -23,-32 -42,-28 -44,10 -85,3 -117,-18 -33,-21 -58,-56 -69,-101 -5,-19 -24,-30 -43,-26 -19,5 -30,24 -25,43 15,62 51,113 99,143 48,31 107,42 170,28zm56 -333c-85,-142 -228,-204 -429,-189 0,531 0,1061 0,1592 151,36 274,17 344,-113 173,-35 249,-134 211,-303 81,-25 202,-197 81,-357l2 -4c-50,-24 -98,-38 -148,-41 -87,-6 -179,20 -279,72 -18,9 -39,2 -48,-16 -9,-17 -2,-38 15,-47 112,-58 215,-86 317,-79 56,3 112,18 168,44 70,-227 19,-487 -234,-559zm-24 842c20,1 36,-15 37,-34 0,-19 -15,-36 -34,-36 -40,-2 -82,13 -119,39 -36,25 -68,61 -88,102 -21,42 -22,87 -23,128 -1,13 -1,26 -2,36 -2,20 12,37 32,39 19,2 36,-13 38,-32 1,-13 2,-27 2,-41 1,-33 2,-71 16,-99 15,-30 39,-57 65,-75 25,-17 52,-28 76,-27zm-912 -842c85,-142 228,-204 429,-189 0,531 0,1061 0,1592 -151,36 -274,17 -344,-113 -173,-35 -249,-134 -211,-303 -81,-25 -202,-197 -81,-357l-2 -4c50,-24 98,-38 148,-41 87,-6 179,20 279,72 18,9 39,2 48,-16 9,-17 2,-38 -15,-47 -112,-58 -215,-86 -317,-79 -56,3 -112,18 -168,44 -70,-227 -19,-487 234,-559zm24 842c-20,1 -36,-15 -37,-34 0,-19 15,-36 34,-36 40,-2 82,13 119,39 36,25 68,61 88,102 21,42 22,87 23,128 1,13 1,26 2,36 2,20 -12,37 -32,39 -19,2 -36,-13 -38,-32 -1,-13 -2,-27 -2,-41 -1,-33 -2,-71 -16,-99 -15,-30 -39,-57 -65,-75 -25,-17 -52,-28 -76,-27z"/>
  <rect class="fil1" width="2000" height="2000"/>
 </g>
</svg>
