<?xml version="1.0" encoding="UTF-8"?>
<!DOCTYPE svg PUBLIC "-//W3C//DTD SVG 1.1//EN" "http://www.w3.org/Graphics/SVG/1.1/DTD/svg11.dtd">
<!-- Creator: CorelDRAW X8 -->
<svg xmlns="http://www.w3.org/2000/svg" xml:space="preserve" width="20mm" height="20mm" version="1.1" style="shape-rendering:geometricPrecision; text-rendering:geometricPrecision; image-rendering:optimizeQuality; fill-rule:evenodd; clip-rule:evenodd"
viewBox="0 0 2000 2000"
 xmlns:xlink="http://www.w3.org/1999/xlink">
 <defs>
  <style type="text/css">
   <![CDATA[
    .fil1 {fill:none}
    .fil0 {fill:#00437B}
   ]]>
  </style>
 </defs>
 <g id="Слой_x0020_1">
  <metadata id="CorelCorpID_0Corel-Layer"/>
  <path class="fil0" d="M383 1372c-323,-142 -342,-467 -232,-769 63,-149 150,-265 289,-329 145,-66 343,-73 457,89 62,142 60,268 -31,369 -80,59 -204,74 -177,193 43,195 17,317 -68,380 -56,50 -118,92 -238,67zm1234 0c323,-142 342,-467 232,-769 -63,-149 -150,-265 -289,-329 -145,-66 -343,-73 -457,89 -62,142 -60,268 31,369 80,59 204,74 177,193 -43,195 -16,317 68,380 56,50 118,92 238,67zm-348 -472c2,-2 4,-4 6,-6 2,-2 3,-4 4,-7l2 -4 -1 -4c-2,-12 -6,-21 -13,-28 -6,-8 -15,-14 -28,-18l-4 -2 -5 2c-2,0 -4,1 -6,2 -2,1 -3,3 -5,4 -11,9 -22,19 -31,29 -10,10 -19,21 -27,33 -8,12 -15,26 -19,41 -3,12 -5,23 -6,36l0 0 0 753c0,10 4,20 11,28 8,7 18,11 28,11 11,0 21,-4 28,-11 8,-8 12,-18 12,-28l0 -751c0,-6 1,-11 3,-15 2,-8 5,-15 10,-22 4,-7 11,-15 17,-22 8,-7 16,-14 24,-21zm-538 0c-2,-2 -4,-4 -6,-6 -2,-2 -3,-4 -4,-7l-2 -4 1 -4c2,-12 6,-21 13,-28 6,-8 15,-14 28,-18l4 -2 5 2c2,0 4,1 6,2 2,1 3,3 5,4 11,9 22,19 31,29 10,10 19,21 27,33 8,12 15,26 19,41 3,12 5,23 6,36l0 0 0 753c0,10 -4,20 -11,28 -8,7 -18,11 -28,11 -11,0 -21,-4 -28,-11 -8,-8 -12,-18 -12,-28l0 -751c0,-6 -1,-11 -3,-15 -2,-8 -5,-15 -10,-22 -4,-7 -11,-15 -17,-22 -8,-7 -16,-14 -24,-21z"/>
  <rect class="fil1" width="2000" height="2000"/>
 </g>
</svg>
