<?xml version="1.0" encoding="UTF-8"?>
<!DOCTYPE svg PUBLIC "-//W3C//DTD SVG 1.1//EN" "http://www.w3.org/Graphics/SVG/1.1/DTD/svg11.dtd">
<!-- Creator: CorelDRAW X8 -->
<svg xmlns="http://www.w3.org/2000/svg" xml:space="preserve" width="33mm" height="33mm" version="1.1" style="shape-rendering:geometricPrecision; text-rendering:geometricPrecision; image-rendering:optimizeQuality; fill-rule:evenodd; clip-rule:evenodd"
viewBox="0 0 3300 3300"
 xmlns:xlink="http://www.w3.org/1999/xlink">
 <defs>
  <style type="text/css">
   <![CDATA[
    .fil0 {fill:none}
    .fil1 {fill:url(#id0);fill-rule:nonzero}
   ]]>
  </style>
  <linearGradient id="id0" gradientUnits="userSpaceOnUse" x1="962.18" y1="340.78" x2="2876.06" y2="3620.32">
   <stop offset="0" style="stop-opacity:1; stop-color:#00437B"/>
   <stop offset="1" style="stop-opacity:1; stop-color:#00B8B0"/>
  </linearGradient>
 </defs>
 <g id="Слой_x0020_1">
  <metadata id="CorelCorpID_0Corel-Layer"/>
  <rect class="fil0" width="3300" height="3300"/>
  <path class="fil1" d="M2339 1271c-277,32 -558,49 -842,50l12 826c1,26 -21,48 -49,49 -27,0 -50,-21 -50,-48l-13 -827c-97,0 -194,-3 -292,-7 -1,0 -3,0 -4,0 -183,-8 -365,-22 -549,-43 -28,-3 -47,-28 -44,-55 1,-16 10,-29 23,-37l900 -647c15,-12 36,-15 54,-6 3,1 5,3 7,4l0 0 873 651c22,17 27,48 10,70 -9,12 -22,19 -36,20zm312 1281l0 177c0,28 -23,50 -50,50l-220 0c-27,0 -50,-22 -50,-50l0 -177 -1359 0 0 177c0,28 -22,50 -50,50l-219 0c-28,0 -50,-22 -50,-50l0 -177 -53 0c-26,0 -49,-10 -65,-27l-1 -1c-16,-16 -27,-39 -27,-64l0 -143c0,-26 11,-49 27,-65l1 -1c17,-16 40,-27 65,-27l1276 0 590 -308c1,-1 3,-2 4,-2l250 -131c24,-13 54,-3 67,21 13,25 3,55 -21,67l-214 112 81 241 67 0c26,0 49,11 65,27l1 1c16,17 27,40 27,65l0 143c0,25 -11,48 -27,65l-1 0c-17,17 -40,27 -65,27l-49 0zm-220 0l0 127 120 0 0 -127 -120 0zm-1678 0l0 127 119 0 0 -127 -119 0zm1775 -328l-66 -194 -371 194 437 0zm165 100l-2086 0 0 128 96 0 219 0 1459 0 220 0 92 0 0 -128zm-1618 -1111l248 -481 -630 453c128,13 255,22 382,28zm526 -477l238 476c122,-6 243,-15 364,-27l-602 -449zm129 481l-268 -536 -277 536c90,3 180,5 269,5 92,0 184,-2 276,-5z"/>
 </g>
</svg>
