<?xml version="1.0" encoding="UTF-8"?>
<!DOCTYPE svg PUBLIC "-//W3C//DTD SVG 1.1//EN" "http://www.w3.org/Graphics/SVG/1.1/DTD/svg11.dtd">
<!-- Creator: CorelDRAW X8 -->
<svg xmlns="http://www.w3.org/2000/svg" xml:space="preserve" width="33mm" height="33mm" version="1.1" style="shape-rendering:geometricPrecision; text-rendering:geometricPrecision; image-rendering:optimizeQuality; fill-rule:evenodd; clip-rule:evenodd"
viewBox="0 0 3300 3300"
 xmlns:xlink="http://www.w3.org/1999/xlink">
 <defs>
  <style type="text/css">
   <![CDATA[
    .fil0 {fill:none}
    .fil1 {fill:url(#id0);fill-rule:nonzero}
   ]]>
  </style>
  <linearGradient id="id0" gradientUnits="userSpaceOnUse" x1="1023.64" y1="459.52" x2="2765.64" y2="3441.97">
   <stop offset="0" style="stop-opacity:1; stop-color:#00437B"/>
   <stop offset="1" style="stop-opacity:1; stop-color:#00B8B0"/>
  </linearGradient>
 </defs>
 <g id="Слой_x0020_1">
  <metadata id="CorelCorpID_0Corel-Layer"/>
  <rect class="fil0" width="3300" height="3300"/>
  <path class="fil1" d="M1988 1321l-85 125 0 0 -119 174 321 -86c27,-7 54,9 61,36 7,26 -9,54 -35,61l-307 82c64,21 130,42 195,64l72 23 221 61c180,-69 265,-198 276,-326 4,-51 -3,-102 -20,-150 -16,-47 -43,-91 -78,-128 -86,-90 -226,-136 -397,-80l-105 144zm-25 775c15,23 8,54 -15,69 -23,15 -54,8 -69,-15l-169 -258 0 50c-1,168 -1,310 4,476 118,145 273,181 406,148 52,-13 101,-36 143,-68 42,-31 77,-70 102,-116 60,-109 61,-254 -48,-404 -81,-25 -169,-54 -258,-83l-277 -76 181 277zm-531 54c-15,23 -45,30 -69,15 -23,-15 -29,-46 -14,-69l183 -281 -77 21 -447 142c-110,150 -110,296 -50,405 25,45 60,85 101,116 42,31 90,54 142,67 132,33 286,-4 404,-149 2,-127 1,-244 0,-368 0,-52 -1,-105 -1,-161l-172 262zm-237 -515c-27,-7 -42,-35 -35,-61 7,-27 34,-43 61,-36l303 82 -130 -187 -187 -256c-171,-56 -311,-10 -397,80 -35,37 -62,81 -78,128 -17,48 -24,99 -20,150 11,128 96,257 276,326l432 -118 81 -26 -306 -82zm411 -393c0,-28 22,-50 50,-50 27,0 50,22 50,50l0 295 100 -136 104 -143 107 -158c-4,-180 -94,-296 -209,-347 -46,-21 -96,-31 -146,-31 -51,0 -101,11 -147,32 -118,53 -210,176 -215,369l178 256 16 22 112 152 0 -311zm53 1265c-143,156 -324,195 -482,156 -64,-16 -125,-45 -177,-85 -53,-39 -98,-89 -129,-147 -75,-136 -79,-313 43,-493 -195,-88 -288,-241 -301,-395 -6,-65 3,-130 25,-191 21,-61 55,-117 100,-164 105,-110 268,-169 465,-116 20,-210 131,-345 270,-409 60,-27 124,-40 189,-41 64,0 128,13 187,40 140,62 252,198 267,405 189,-44 345,15 446,121 45,47 79,103 100,164 22,61 31,126 25,191 -13,149 -100,297 -283,386 129,182 125,363 48,501 -31,58 -76,108 -129,148 -53,40 -114,69 -179,85 -159,40 -342,1 -485,-156z"/>
 </g>
</svg>
