<?xml version="1.0" encoding="UTF-8"?>
<!DOCTYPE svg PUBLIC "-//W3C//DTD SVG 1.1//EN" "http://www.w3.org/Graphics/SVG/1.1/DTD/svg11.dtd">
<!-- Creator: CorelDRAW X8 -->
<svg xmlns="http://www.w3.org/2000/svg" xml:space="preserve" width="33mm" height="33mm" version="1.1" style="shape-rendering:geometricPrecision; text-rendering:geometricPrecision; image-rendering:optimizeQuality; fill-rule:evenodd; clip-rule:evenodd"
viewBox="0 0 3300 3300"
 xmlns:xlink="http://www.w3.org/1999/xlink">
 <defs>
  <style type="text/css">
   <![CDATA[
    .fil0 {fill:none}
    .fil1 {fill:url(#id0);fill-rule:nonzero}
   ]]>
  </style>
  <linearGradient id="id0" gradientUnits="userSpaceOnUse" x1="1282.25" y1="531.75" x2="2533.79" y2="3265.48">
   <stop offset="0" style="stop-opacity:1; stop-color:#00437B"/>
   <stop offset="1" style="stop-opacity:1; stop-color:#00B8B0"/>
  </linearGradient>
 </defs>
 <g id="Слой_x0020_1">
  <metadata id="CorelCorpID_0Corel-Layer"/>
  <rect class="fil0" width="3300" height="3300"/>
  <path class="fil1" d="M653 2496c-26,10 -55,-3 -65,-28 -10,-26 3,-55 29,-65 47,-18 94,-42 137,-75 41,-32 80,-73 112,-127 13,-24 44,-32 68,-18 9,5 16,13 20,22 23,48 58,86 95,113 42,30 85,45 118,45 33,-1 66,-12 98,-37 35,-26 69,-66 102,-122 14,-23 45,-31 68,-17 8,5 14,11 18,18 27,47 62,87 101,115 33,23 69,37 104,37l0 1c45,0 95,-11 136,-41 31,-23 57,-59 72,-112 7,-26 34,-42 61,-35 17,5 29,17 34,32 19,56 50,95 87,120 44,29 97,40 148,37 44,-2 85,-14 118,-42 29,-24 53,-62 69,-116 8,-26 36,-41 62,-33 17,5 30,18 34,34 15,52 41,89 77,115 38,27 88,44 149,55 27,4 45,30 40,57 -5,27 -31,45 -58,41 -75,-14 -138,-36 -190,-73 -25,-18 -47,-39 -65,-64 -16,24 -35,44 -55,61 -51,42 -112,61 -176,65 -70,4 -145,-12 -208,-55 -28,-19 -54,-43 -76,-73 -19,27 -40,49 -64,66 -60,44 -132,60 -195,60l0 0c-57,0 -112,-21 -162,-56 -31,-22 -60,-50 -86,-82 -27,36 -55,65 -85,87 -50,38 -103,56 -157,56 -53,1 -118,-21 -177,-63 -30,-22 -59,-50 -84,-82 -29,35 -60,65 -93,90 -50,39 -105,67 -161,89zm-22 -682c-26,10 -55,-3 -65,-29 -10,-26 3,-54 29,-64 48,-19 94,-43 137,-75 42,-32 80,-74 112,-128 14,-23 44,-31 68,-17 9,5 16,13 20,22 24,48 58,85 96,112 41,30 84,46 118,45 32,0 65,-12 98,-37 34,-26 68,-66 101,-121 14,-24 45,-31 69,-17 7,4 13,10 17,18 28,46 62,87 101,114 33,24 69,38 104,38l0 0c45,0 95,-11 136,-40 31,-24 58,-60 72,-112 7,-27 35,-43 61,-35 17,4 29,17 34,32 19,56 51,94 88,119 44,30 97,41 147,38 44,-3 85,-15 118,-42 29,-25 53,-62 70,-116 7,-27 35,-42 62,-34 17,5 29,18 33,34 15,53 41,90 77,115 38,27 88,44 149,55 27,5 45,31 40,58 -5,27 -31,45 -58,40 -74,-13 -138,-35 -189,-72 -26,-18 -47,-40 -66,-65 -16,24 -34,44 -55,61 -51,43 -112,62 -176,65 -70,4 -145,-12 -208,-54 -28,-19 -54,-43 -76,-73 -19,26 -40,48 -64,66 -60,44 -131,60 -195,60l0 0c-57,0 -112,-21 -162,-57 -31,-22 -60,-50 -85,-82 -28,36 -56,65 -85,87 -51,38 -103,56 -158,57 -53,0 -118,-22 -177,-64 -30,-22 -59,-49 -84,-82 -28,36 -59,65 -92,91 -51,39 -106,67 -162,89zm-9 -683c-25,10 -54,-3 -64,-28 -10,-26 3,-55 28,-65 48,-18 95,-42 137,-75 42,-32 80,-73 112,-127 14,-24 45,-32 68,-18 9,5 16,13 20,22 24,48 59,86 96,113 41,30 85,45 118,45 33,-1 65,-12 98,-37 35,-26 69,-66 102,-122 14,-23 44,-31 68,-17 8,5 14,11 18,18 27,47 62,87 100,115 34,23 69,37 105,37l0 1c45,0 95,-11 135,-41 32,-23 58,-59 73,-112 7,-26 34,-42 61,-35 16,5 29,17 34,32 19,56 50,95 87,120 44,29 97,40 148,37 43,-2 84,-14 117,-42 30,-24 54,-62 70,-116 8,-26 36,-41 62,-33 17,5 29,18 34,34 15,52 41,89 76,115 38,27 89,44 149,55 27,4 45,30 40,57 -4,27 -30,45 -57,41 -75,-14 -139,-36 -190,-73 -25,-18 -47,-39 -65,-64 -17,24 -35,44 -55,61 -51,42 -112,61 -176,65 -71,4 -145,-12 -208,-55 -29,-19 -55,-43 -77,-73 -18,27 -40,49 -63,66 -60,44 -132,60 -195,60l0 0c-57,0 -113,-21 -163,-56 -31,-22 -59,-50 -85,-82 -27,36 -56,65 -85,87 -50,38 -103,56 -157,56 -53,1 -118,-21 -177,-63 -31,-22 -60,-50 -85,-82 -28,35 -59,65 -92,90 -51,39 -106,67 -162,89z"/>
 </g>
</svg>
