<?xml version="1.0" encoding="UTF-8"?>
<!DOCTYPE svg PUBLIC "-//W3C//DTD SVG 1.1//EN" "http://www.w3.org/Graphics/SVG/1.1/DTD/svg11.dtd">
<!-- Creator: CorelDRAW X8 -->
<svg xmlns="http://www.w3.org/2000/svg" xml:space="preserve" width="33mm" height="33mm" version="1.1" style="shape-rendering:geometricPrecision; text-rendering:geometricPrecision; image-rendering:optimizeQuality; fill-rule:evenodd; clip-rule:evenodd"
viewBox="0 0 3300 3300"
 xmlns:xlink="http://www.w3.org/1999/xlink">
 <defs>
  <style type="text/css">
   <![CDATA[
    .fil0 {fill:none}
    .fil1 {fill:url(#id0);fill-rule:nonzero}
   ]]>
  </style>
  <linearGradient id="id0" gradientUnits="userSpaceOnUse" x1="1231.79" y1="273.68" x2="2638.53" y2="3641">
   <stop offset="0" style="stop-opacity:1; stop-color:#00437B"/>
   <stop offset="1" style="stop-opacity:1; stop-color:#00B8B0"/>
  </linearGradient>
 </defs>
 <g id="Слой_x0020_1">
  <metadata id="CorelCorpID_0Corel-Layer"/>
  <rect class="fil0" width="3300" height="3300"/>
  <path class="fil1" d="M781 650c0,-14 5,-26 13,-35 8,-10 19,-15 32,-15 12,0 24,5 32,15 8,9 13,21 13,35l0 135 1552 0 0 -135c0,-14 5,-26 13,-35 8,-10 20,-15 32,-15 12,0 24,5 32,15 8,9 13,21 13,35l0 135 219 0c13,0 24,6 32,15 8,9 13,21 13,35 0,14 -5,26 -13,35 -8,9 -19,15 -32,15l-219 0 0 200 219 0c13,0 24,5 32,14 8,10 13,22 13,36 0,13 -5,26 -13,35 -8,9 -19,15 -32,15l-219 0 0 200 220 0c13,0 24,5 32,14 8,9 13,22 13,35 0,14 -5,27 -13,36 -8,9 -19,14 -32,14l-220 0 0 136c0,13 -5,26 -13,35 -8,9 -20,15 -32,15 -12,0 -24,-6 -32,-15 -8,-9 -13,-22 -13,-35l0 -136 -1552 0 0 136c0,13 -5,26 -13,35 -8,9 -20,15 -32,15 -13,0 -24,-6 -32,-15 -8,-9 -13,-22 -13,-35l0 -136 -194 0c-12,0 -24,-5 -32,-14 -8,-9 -13,-22 -13,-36 0,-13 5,-26 13,-35 8,-9 20,-14 32,-14l194 0 0 -200 -195 0c-12,0 -24,-6 -32,-15 -8,-9 -13,-22 -13,-35 0,-14 5,-27 13,-36 8,-9 20,-14 32,-14l195 0 0 -200 -195 0c-12,0 -24,-6 -32,-15 -8,-9 -13,-21 -13,-35 0,-14 5,-26 13,-35 8,-9 20,-15 32,-15l195 0 0 -135zm200 1283l0 503c0,14 -5,26 -13,35 -8,9 -20,15 -32,15 -12,0 -24,-6 -32,-15 -8,-9 -13,-21 -13,-35l0 -503 -191 0 0 717c0,14 -5,26 -13,35 -9,10 -20,15 -32,15 -13,0 -24,-5 -32,-14 -8,-10 -13,-22 -13,-36l0 -717 -126 0c-12,0 -23,-6 -32,-15 -8,-9 -13,-21 -13,-35 0,-14 5,-26 13,-35 9,-9 20,-15 32,-15l170 0 1 0 280 0 1 0 1 0 1442 0 1 0 1 0 263 0 0 0 1 0 171 0c12,0 23,6 32,15 8,9 13,21 13,35 0,14 -5,26 -13,35 -9,9 -20,15 -32,15l-127 0 0 717c0,14 -5,26 -13,35 -8,10 -19,15 -32,15 -12,0 -24,-5 -32,-14 -8,-10 -13,-22 -13,-36l0 -717 -174 0 0 503c0,14 -5,26 -13,35 -8,9 -20,15 -32,15 -12,0 -24,-6 -32,-15 -8,-9 -13,-21 -13,-35l0 -503 -1354 0zm-110 -548l1552 0 0 -200 -1552 0 0 200zm0 -300l1552 0 0 -200 -1552 0 0 200z"/>
 </g>
</svg>
