<?xml version="1.0" encoding="UTF-8"?>
<!DOCTYPE svg PUBLIC "-//W3C//DTD SVG 1.1//EN" "http://www.w3.org/Graphics/SVG/1.1/DTD/svg11.dtd">
<!-- Creator: CorelDRAW X8 -->
<svg xmlns="http://www.w3.org/2000/svg" xml:space="preserve" width="33mm" height="33mm" version="1.1" style="shape-rendering:geometricPrecision; text-rendering:geometricPrecision; image-rendering:optimizeQuality; fill-rule:evenodd; clip-rule:evenodd"
viewBox="0 0 3300 3300"
 xmlns:xlink="http://www.w3.org/1999/xlink">
 <defs>
  <style type="text/css">
   <![CDATA[
    .fil0 {fill:none}
    .fil1 {fill:url(#id0);fill-rule:nonzero}
   ]]>
  </style>
  <linearGradient id="id0" gradientUnits="userSpaceOnUse" x1="1368.67" y1="274.98" x2="2641.94" y2="3598.09">
   <stop offset="0" style="stop-opacity:1; stop-color:#00437B"/>
   <stop offset="1" style="stop-opacity:1; stop-color:#00B8B0"/>
  </linearGradient>
 </defs>
 <g id="Слой_x0020_1">
  <metadata id="CorelCorpID_0Corel-Layer"/>
  <rect class="fil0" width="3300" height="3300"/>
  <path class="fil1" d="M746 1420c85,0 166,18 240,50l132 -251 -117 -234c-16,4 -30,7 -43,9 -55,12 -82,27 -127,-20 -57,-59 -9,-146 70,-145 45,0 433,-8 448,3 59,41 -107,95 -256,132l98 196 1065 0c-19,-97 -36,-194 -49,-292 -65,20 -124,25 -181,13 -73,-15 -139,-59 -198,-136 -15,-20 -12,-49 8,-64 20,-16 49,-12 65,8 45,58 92,91 144,102 48,10 102,2 163,-21 8,-9 19,-16 32,-17 25,-3 48,15 50,40 25,214 69,427 122,639l2 5c45,-11 92,-17 140,-17 167,0 318,68 428,177 109,110 177,261 177,428 0,167 -68,318 -177,427 -110,109 -261,177 -428,177 -166,0 -318,-68 -427,-177 -109,-109 -177,-260 -177,-427 0,-167 68,-318 177,-428 56,-56 124,-101 199,-132l-3 -10c-14,-55 -27,-109 -39,-164l-663 744c-2,16 -11,30 -25,37 -15,8 -32,7 -45,-1l-203 0c-11,148 -76,282 -175,381 -109,109 -261,177 -427,177 -167,0 -318,-68 -428,-177 -109,-109 -177,-260 -177,-427 0,-167 68,-318 177,-428 110,-109 261,-177 428,-177zm1691 106c48,181 104,362 161,543 8,25 -6,50 -30,58 -24,8 -50,-6 -58,-30 -57,-180 -112,-360 -161,-542 -59,26 -112,63 -157,108 -92,92 -150,220 -150,362 0,141 58,269 150,362 93,93 221,150 362,150 142,0 270,-57 363,-150 92,-93 150,-221 150,-362 0,-142 -58,-270 -150,-362 -93,-93 -221,-150 -363,-150 -40,0 -79,4 -117,13zm-1200 -274l344 689 615 -689 -959 0zm260 727l-328 -658 -102 192c39,24 74,53 106,84 99,100 164,233 175,382l149 0zm-241 92l-510 0c-26,0 -46,-21 -46,-46 0,-9 2,-17 6,-24l237 -449c-61,-25 -128,-39 -197,-39 -142,0 -270,57 -363,150 -92,92 -150,220 -150,362 0,141 58,269 150,362 93,93 221,150 363,150 141,0 269,-57 362,-150 82,-83 137,-193 148,-316zm-434 -92l434 0c-11,-123 -66,-234 -148,-316 -26,-26 -54,-49 -84,-68l-202 384z"/>
 </g>
</svg>
