<?xml version="1.0" encoding="UTF-8"?>
<!DOCTYPE svg PUBLIC "-//W3C//DTD SVG 1.1//EN" "http://www.w3.org/Graphics/SVG/1.1/DTD/svg11.dtd">
<!-- Creator: CorelDRAW X8 -->
<svg xmlns="http://www.w3.org/2000/svg" xml:space="preserve" width="33mm" height="33mm" version="1.1" style="shape-rendering:geometricPrecision; text-rendering:geometricPrecision; image-rendering:optimizeQuality; fill-rule:evenodd; clip-rule:evenodd"
viewBox="0 0 3300 3300"
 xmlns:xlink="http://www.w3.org/1999/xlink">
 <defs>
  <style type="text/css">
   <![CDATA[
    .fil0 {fill:none}
    .fil1 {fill:url(#id0);fill-rule:nonzero}
   ]]>
  </style>
  <linearGradient id="id0" gradientUnits="userSpaceOnUse" x1="1072.7" y1="457.79" x2="2726.39" y2="3427.21">
   <stop offset="0" style="stop-opacity:1; stop-color:#00437B"/>
   <stop offset="1" style="stop-opacity:1; stop-color:#00B8B0"/>
  </linearGradient>
 </defs>
 <g id="Слой_x0020_1">
  <metadata id="CorelCorpID_0Corel-Layer"/>
  <rect class="fil0" width="3300" height="3300"/>
  <path class="fil1" d="M1030 1456c-110,-36 -206,-86 -281,-159 -77,-74 -132,-170 -158,-296 -4,-23 8,-46 29,-55l0 0 260 -115c2,-1 3,-2 5,-2l180 -80c42,-73 101,-100 159,-98 43,1 84,21 114,50 31,30 52,70 55,113 5,59 -21,121 -96,167l-82 178c-1,2 -2,4 -3,6l-122 264c-10,23 -37,34 -60,27zm1575 -307l-152 151 93 93c7,-13 14,-27 20,-41 29,-65 45,-132 44,-199l-5 -4zm-188 186l-157 155 114 113 7 -6 0 0c54,-47 101,-101 139,-159l-103 -103zm-192 190l-164 161 56 58c75,-21 150,-59 217,-110l-109 -109zm-199 196l-48 47c28,-3 55,-6 82,-11l-34 -36zm-124 52l89 -88 -133 -138 -153 147 81 81c40,0 79,0 116,-2zm125 -123l163 -161 -133 -132 -162 156 132 137zm198 -196l157 -154 -129 -130 -160 153 132 131zm192 -190l152 -150 -128 -124 -152 146 128 128zm102 -348l-42 40 123 118c-13,-54 -39,-108 -81,-158zm-850 813l-44 42 4 0c29,1 57,2 85,3l-45 -45zm-67 -5l32 -31 -34 -33c1,21 1,42 2,64zm68 -65l154 -147 -120 -125 -108 102c0,32 1,64 2,98l72 72zm190 -182l162 -155 -122 -122 -160 152 120 125zm198 -190l159 -152 -121 -121 -160 152 122 121zm195 -186l152 -145 -123 -119 -150 142 121 122zm188 -180l44 -42c-47,-45 -96,-76 -147,-95l-20 19 123 118zm-843 497l71 -67 -57 -59c-2,10 -4,21 -5,31 -5,32 -8,63 -9,95zm107 -102l160 -151 -136 -136c-25,34 -46,67 -63,101 -17,34 -30,69 -40,104l79 82zm196 -186l160 -151 -131 -131c-44,25 -64,42 -102,76l-15 14c-19,18 -36,35 -52,53l140 139zm196 -186l149 -142 -43 -42c-13,0 -26,1 -39,3 -65,6 -129,28 -189,59l122 122zm-896 1154l301 -300c1,-65 -1,-126 -3,-184 -3,-109 -6,-206 9,-305 11,-74 31,-149 69,-224 37,-75 91,-148 168,-220l17 -15c111,-99 249,-172 392,-187 146,-15 294,30 422,167l12 13 0 0c59,67 94,140 111,215 24,112 6,227 -42,334 -46,105 -121,202 -210,280l0 0c-99,86 -218,150 -338,177 -147,32 -305,27 -482,22l-55 -2 -300 300 0 97c0,14 -5,26 -15,35l-333 334c-19,19 -51,19 -71,0 -1,-2 -3,-4 -4,-6l-111 -120c-18,-20 -17,-50 2,-69l0 0 326 -327c10,-10 23,-15 36,-15l99 0zm-357 379l46 50 282 -282 0 -47 -49 0 -279 279zm145 -1585l164 163 46 -98 -110 -110 -100 45zm119 260l-217 -217 -193 85c24,85 65,152 120,205 54,52 122,91 201,121l89 -194zm56 -372l101 101c22,-19 30,-40 29,-59 -2,-18 -11,-36 -25,-49 -14,-13 -31,-22 -49,-23 -18,0 -38,8 -56,30z"/>
 </g>
</svg>
