<svg xmlns="http://www.w3.org/2000/svg" xml:space="preserve" width="65mm" height="65mm" version="1.1" style="shape-rendering:geometricPrecision; text-rendering:geometricPrecision; image-rendering:optimizeQuality; fill-rule:evenodd; clip-rule:evenodd" viewBox="0 0 6500 6500" xmlns:xlink="http://www.w3.org/1999/xlink"><path fill="white" d="M1571 2485c0,30 -5,60 -14,88 -6,15 -12,31 -20,45 85,114 450,551 606,-128 -29,-20 -53,-47 -71,-78l-1 0c-24,-41 -38,-89 -38,-141 0,-72 27,-137 71,-185 45,-49 107,-79 176,-79 69,0 131,30 176,79 44,48 71,113 71,185 0,49 -13,95 -35,134 -16,29 -37,55 -62,75 28,80 92,245 166,276 77,32 179,-111 296,-755 -27,-21 -51,-47 -68,-78 -23,-40 -37,-88 -37,-138 0,-72 27,-137 71,-185 45,-48 107,-79 176,-79 69,0 131,31 176,79 44,48 71,113 71,185 0,50 -13,98 -37,138 -17,31 -41,57 -68,78 72,398 145,609 213,705 29,40 52,55 71,53 20,-2 43,-22 65,-50 53,-67 94,-174 114,-232 -24,-20 -45,-45 -60,-74 -21,-39 -34,-84 -34,-132 0,-72 28,-137 71,-185 45,-49 107,-79 176,-79 69,0 131,30 176,79 44,48 71,113 71,185 0,53 -14,102 -40,144 -19,31 -44,58 -73,78 156,674 519,241 604,126 -8,-15 -14,-30 -20,-46 -9,-28 -14,-58 -14,-88 0,-72 27,-138 71,-185 45,-49 107,-79 176,-79 69,0 131,30 176,79 44,47 71,113 71,185 0,68 -25,131 -66,178 -35,41 -81,70 -134,80 -50,112 -138,321 -207,546 -73,240 -124,499 -84,676 7,27 -10,54 -37,60 -10,2 -20,1 -29,-2 -49,-15 -750,-224 -1399,-224 -672,0 -1400,224 -1402,225 -27,8 -54,-7 -62,-33 -3,-9 -3,-18 -1,-26 40,-177 -11,-436 -84,-676 -69,-225 -157,-434 -207,-545 -53,-11 -100,-40 -135,-80 -41,-47 -66,-110 -66,-179 0,-72 27,-138 71,-185 45,-49 107,-79 176,-79 69,0 131,30 176,79 44,47 71,113 71,185zm-109 56c5,-17 9,-36 9,-56 0,-46 -17,-88 -45,-118 -26,-28 -62,-46 -102,-46 -40,0 -76,18 -102,46 -28,30 -45,72 -45,118 0,44 16,84 42,113 24,29 58,47 95,50 19,0 36,11 44,29 48,105 146,333 222,583 68,221 117,459 99,646 206,-57 800,-207 1355,-207 555,0 1149,150 1355,207 -18,-187 31,-425 99,-646 76,-250 174,-478 222,-583 7,-16 23,-28 42,-29 38,-3 72,-21 97,-50 25,-29 41,-69 41,-113 0,-46 -17,-88 -45,-118 -26,-28 -62,-46 -102,-46 -40,0 -76,18 -102,46 -28,30 -45,72 -45,118 0,20 3,39 9,56 6,17 14,33 24,47 9,10 13,23 12,37 -1,13 -7,24 -16,33 -62,89 -596,811 -804,-178 -6,-23 5,-47 27,-58 27,-12 50,-33 66,-59 16,-26 25,-58 25,-92 0,-46 -17,-88 -44,-117 -27,-29 -63,-47 -103,-47 -39,0 -76,18 -102,47 -27,29 -44,71 -44,117 0,31 7,60 21,84 13,26 33,46 56,60 19,12 29,35 22,57 -11,38 -64,201 -141,299 -38,48 -83,83 -135,88 -54,5 -109,-21 -161,-95 -78,-110 -159,-342 -237,-777 -4,-21 6,-43 26,-54 25,-13 46,-34 61,-60 14,-25 23,-55 23,-88 0,-46 -17,-87 -45,-117 -26,-29 -62,-46 -102,-46 -40,0 -76,17 -102,46 -28,30 -45,71 -45,117 0,33 9,63 23,88 15,26 36,47 61,60 19,10 30,31 26,53 -137,768 -302,919 -439,863 -128,-53 -215,-311 -234,-372 -8,-22 1,-48 23,-60 24,-14 44,-35 58,-60 14,-25 22,-54 22,-86 0,-46 -17,-88 -45,-117 -26,-29 -62,-47 -102,-47 -40,0 -76,18 -102,47 -28,29 -45,71 -45,117 0,33 9,64 25,90l-1 0c15,26 37,46 62,59 21,9 34,32 29,56 -205,986 -733,284 -804,184 -21,-17 -25,-48 -8,-69 11,-15 20,-32 26,-50zm1558 -2044c765,0 1457,310 1958,811 501,501 811,1193 811,1958 0,764 -310,1456 -811,1957 -501,501 -1193,811 -1958,811 -765,0 -1457,-310 -1958,-811 -501,-501 -811,-1193 -811,-1957 0,-765 310,-1457 811,-1958 501,-501 1193,-811 1958,-811zm1887 882c-483,-483 -1150,-782 -1887,-782 -737,0 -1404,299 -1887,782 -483,483 -781,1150 -781,1887 0,736 298,1404 781,1887 483,482 1150,781 1887,781 737,0 1404,-299 1887,-781 483,-483 781,-1151 781,-1887 0,-737 -298,-1404 -781,-1887zm-1874 2948c382,0 728,32 980,85 272,57 441,146 441,253 0,106 -169,195 -441,252 -252,53 -598,86 -980,86 -381,0 -727,-33 -979,-86 -272,-57 -441,-146 -441,-252 0,-107 169,-196 441,-253 252,-53 598,-85 979,-85zm959 183c-244,-51 -583,-83 -959,-83 -375,0 -714,32 -958,83 -224,47 -362,102 -362,155 0,52 138,108 362,154 244,52 583,84 958,84 376,0 715,-32 959,-84 223,-46 362,-102 362,-154 0,-53 -139,-108 -362,-155z"/></svg>