<svg xmlns="http://www.w3.org/2000/svg" xml:space="preserve" width="65mm" height="65mm" version="1.1" style="shape-rendering:geometricPrecision; text-rendering:geometricPrecision; image-rendering:optimizeQuality; fill-rule:evenodd; clip-rule:evenodd" viewBox="0 0 6500 6500" xmlns:xlink="http://www.w3.org/1999/xlink"><path fill="white" d="M2520 789c0,-28 23,-50 50,-50 28,0 50,22 50,50l0 417c21,-11 43,-21 66,-31 192,-80 434,-111 624,-120l-2 -451c0,-28 22,-50 50,-50 27,0 50,22 50,49l2 461c11,9 19,23 19,38 0,16 -7,30 -18,40l5 1044c58,47 100,102 117,166 21,73 31,151 14,223 -15,69 -54,132 -128,180l4 801c49,52 59,112 6,181l103 0c28,0 50,22 50,50l0 312c0,21 -13,40 -33,47l-563 200c-11,4 -23,5 -35,1l-556 -204c-21,-6 -36,-25 -36,-48l0 -296c0,-28 23,-50 50,-50l111 0 0 -436 -10 -9c-46,-43 -74,-90 -86,-137 -12,-50 -5,-100 19,-145 17,-31 43,-60 77,-84l0 -1049c-41,-34 -78,-76 -106,-122 -51,-82 -76,-178 -53,-269 24,-95 81,-170 159,-229l0 -480zm100 532l0 519c20,12 40,23 60,31 45,17 104,36 169,57 149,49 328,107 467,188l-5 -961c-180,9 -408,37 -586,112 -38,16 -73,34 -105,54zm0 632l0 1310c51,34 120,64 209,86 17,4 43,9 73,15 116,24 299,62 422,123l-7 -1253c-129,-90 -334,-157 -499,-211 -65,-21 -125,-40 -174,-59 -8,-3 -16,-7 -24,-11zm0 1426l0 420c0,27 -22,50 -50,50l-111 0 0 211 509 187 514 -183 0 -227 -107 0c-28,0 -50,-23 -50,-50l0 -4 -1 -181c-95,-68 -313,-113 -442,-140 -31,-7 -57,-12 -77,-17 -72,-17 -134,-40 -185,-66zm-100 -240l0 -41c-3,13 -3,27 0,41zm0 -1393l0 -341c-29,34 -51,73 -62,117 -16,63 3,132 41,193 6,10 14,21 21,31zm897 586l1 290c17,-21 27,-44 32,-68 12,-55 4,-116 -13,-176 -4,-16 -11,-31 -20,-46zm436 -1685c3,0 6,1 10,2 521,169 974,490 1308,909 323,407 534,907 585,1454 46,33 88,69 128,109 195,194 315,464 315,761 0,297 -120,566 -315,761 -179,179 -420,295 -687,313 -255,331 -583,602 -960,789 -370,184 -787,288 -1227,288 -762,0 -1452,-309 -1952,-808 -499,-500 -808,-1190 -808,-1951 0,-585 182,-1127 492,-1574 319,-458 775,-816 1307,-1014 9,-3 18,-4 26,-2 9,-11 23,-18 38,-18 27,0 50,23 50,50l6 1615c0,3 1,7 0,11 0,2 0,4 0,6l7 1860 821 299 766 -282 9 -1923c-2,-3 -3,-7 -3,-11 -1,-8 0,-16 3,-24l6 -1577c0,-28 23,-50 50,-50 9,0 17,3 25,7zm1240 973c-312,-392 -732,-694 -1215,-861l-7 1469c233,-28 468,-64 710,-107 244,-43 492,-93 748,-149 -70,-124 -149,-241 -236,-352zm555 1322c-39,-313 -132,-610 -270,-879 -271,60 -530,112 -780,157 -247,44 -488,80 -727,109l-5 1143c44,-3 87,-7 128,-11 48,-4 96,-10 145,-17 54,-121 130,-231 222,-323 195,-195 464,-316 762,-316 9,0 18,0 27,1 20,0 41,1 61,3 158,13 306,60 437,133zm33 139l-1 -1c-21,-15 -43,-29 -66,-42 -12,-7 -24,-14 -37,-21 -132,-69 -282,-110 -442,-112l-12 0c-270,0 -514,110 -691,286 -177,177 -286,421 -286,691 0,270 109,514 286,690 41,42 86,79 135,113 17,12 35,24 53,35 147,88 319,138 503,138l15 0c264,-4 502,-112 675,-286 177,-176 286,-420 286,-690 0,-270 -109,-514 -286,-691 -40,-40 -84,-77 -132,-110zm-1635 801c0,-116 18,-227 52,-332 -31,4 -62,7 -94,11 -45,4 -91,8 -138,10l-3 686c2,21 -11,42 -33,50l-816 300c-11,4 -23,5 -34,0l-871 -317c-19,-7 -33,-25 -33,-47l-3 -809c-252,-40 -517,-88 -801,-143 -283,-55 -586,-117 -916,-187 -4,56 -6,113 -6,170 0,734 298,1399 779,1880 481,481 1146,779 1881,779 425,0 826,-100 1183,-277 339,-169 637,-408 875,-699 -276,-14 -524,-131 -707,-314 -59,-59 -111,-124 -155,-196 -18,-29 -35,-59 -50,-90 -69,-141 -108,-298 -110,-465l0 -10zm-3222 -2125c-77,112 -147,230 -207,354 264,49 513,87 754,115 239,28 470,47 698,61l-6 -1500c-504,193 -935,534 -1239,970zm-250 447c-109,249 -182,518 -210,799 335,72 642,135 927,190 280,54 538,101 782,140l-4 -947c-233,-13 -467,-33 -709,-61 -251,-29 -511,-68 -786,-121zm4553 1093c-37,53 -79,108 -122,165 -125,165 -262,346 -298,505 -9,39 -14,75 -15,109 -3,117 35,211 97,280 62,70 149,117 239,137 32,8 64,12 95,13 102,3 185,-27 249,-73 81,-58 133,-141 159,-219 89,-278 -113,-538 -294,-771 -39,-50 -77,-99 -110,-146zm-202 105c59,-78 116,-152 157,-219 4,-6 10,-12 16,-17 23,-15 54,-8 70,15 42,65 94,132 148,201 196,253 415,535 310,862 -31,96 -96,199 -196,270 -81,58 -184,95 -310,91 -38,-1 -76,-6 -113,-14 -111,-26 -216,-82 -293,-169 -77,-87 -126,-204 -121,-349 1,-40 7,-83 17,-128 41,-180 184,-370 315,-543zm-99 675c-1,-27 20,-51 48,-52 27,-2 51,20 52,47 3,59 22,106 55,138 33,30 81,47 142,47 27,0 50,23 50,50 0,28 -23,50 -50,50 -88,0 -159,-26 -210,-75 -52,-49 -82,-119 -87,-205z"/></svg>
