<svg xmlns="http://www.w3.org/2000/svg" xml:space="preserve" width="65mm" height="65mm" version="1.1" style="shape-rendering:geometricPrecision; text-rendering:geometricPrecision; image-rendering:optimizeQuality; fill-rule:evenodd; clip-rule:evenodd" viewBox="0 0 6500 6500" xmlns:xlink="http://www.w3.org/1999/xlink"><path fill="white" d="M4096 1912c231,0 441,25 594,65 172,45 278,116 278,201 0,15 -3,30 -10,43l-371 1468c-6,27 -34,43 -60,36 -27,-6 -43,-33 -37,-60l337 -1334c-39,19 -85,35 -137,48 -153,41 -363,66 -594,66 -231,0 -441,-25 -593,-66 -60,-15 -112,-34 -154,-55l36 218c92,101 150,224 180,358 65,281 10,608 -78,869 -8,26 -37,40 -63,31 -26,-9 -40,-37 -31,-63 82,-246 135,-554 75,-814 -44,-193 -151,-361 -354,-456 -81,-38 -170,-61 -265,-68 -94,-6 -192,4 -290,30 -60,17 -115,42 -165,72 -50,29 -95,63 -137,95 -17,15 -44,17 -63,2 -105,-80 -212,-134 -321,-164 -108,-30 -219,-37 -332,-24 -139,22 -250,75 -336,145 -103,83 -172,191 -213,300 -90,242 -53,571 63,881 121,324 326,624 560,780 23,16 29,47 13,70 -15,22 -46,29 -69,13 -251,-168 -470,-486 -598,-828 -123,-330 -161,-685 -62,-951 46,-124 125,-247 243,-343 99,-80 226,-141 385,-166l2 -1c126,-14 250,-6 371,28 92,25 182,66 270,122 -9,-109 -32,-211 -78,-302 -57,-112 -149,-211 -294,-288 -24,-13 -33,-43 -20,-67 13,-24 43,-34 67,-21 165,88 271,201 336,331 26,51 45,104 59,159 40,-106 95,-201 166,-278 129,-140 310,-218 548,-184l1 0c27,4 46,29 42,56l0 3c-16,99 -43,189 -77,273 -23,55 -49,107 -78,157l14 1c107,7 209,33 301,76 40,19 76,40 110,63l-38 -232c-3,-9 -4,-19 -4,-29 0,-85 106,-156 278,-201 152,-40 362,-65 593,-65zm568 162c-144,-38 -345,-62 -568,-62 -223,0 -423,24 -568,62 -123,32 -200,69 -203,102l2 12c13,32 88,65 201,95 145,38 345,61 568,61 223,0 424,-23 568,-61 106,-28 178,-59 198,-88l5 -21c-6,-33 -82,-68 -203,-100zm-2372 373c17,-11 34,-22 52,-32 56,-34 119,-63 189,-82 64,-17 128,-28 191,-33 40,-61 75,-126 104,-196 25,-63 46,-129 61,-201 -176,-11 -312,52 -410,158 -92,99 -153,236 -187,386zm-420 1568l0 722 2333 0c182,-8 309,-49 392,-116 79,-63 119,-153 130,-262l0 -559c-22,30 -48,57 -77,81 -67,55 -152,93 -255,115l0 492c0,28 -22,50 -50,50 -27,0 -50,-22 -50,-50l0 -478c-43,4 -89,6 -138,5l0 0 -199 0 0 321c0,27 -23,50 -50,50 -28,0 -51,-23 -51,-50l0 -321 -327 0 0 488c0,28 -22,51 -50,51 -27,0 -50,-23 -50,-51l0 -488 -313 0 0 382c0,28 -22,50 -50,50 -28,0 -50,-22 -50,-50l0 -382 -313 0 0 491c0,27 -22,50 -50,50 -28,0 -50,-23 -50,-50l0 -491 -337 0 0 323c0,28 -22,50 -50,50 -27,0 -50,-22 -50,-50l0 -323 -295 0zm-100 772l0 -822c0,-27 22,-50 50,-50l2335 0 0 0 1 0c191,4 334,-33 429,-111 89,-74 136,-189 140,-345l0 -13c0,-28 22,-50 50,-50 27,0 50,22 50,50l0 913 0 0 -1 5c-12,138 -63,252 -166,335 -99,80 -245,129 -451,137 -2,1 -4,1 -6,1l-2381 0c-28,0 -50,-23 -50,-50zm-587 -1968c12,-25 42,-35 67,-22 24,12 34,42 22,67 -52,103 -75,208 -77,313 -2,107 18,214 51,320 8,26 -7,54 -33,63 -26,8 -54,-7 -63,-33 -35,-115 -57,-233 -54,-352 2,-119 28,-239 87,-356zm50 919c-12,-25 -1,-55 24,-66 25,-12 55,0 67,25 7,16 16,34 25,53 10,20 19,38 27,54 13,24 3,54 -21,67 -24,13 -54,3 -67,-21 -11,-21 -20,-39 -28,-56 -9,-17 -18,-36 -27,-56zm1785 -3240c765,0 1457,310 1958,811 501,501 811,1193 811,1958 0,764 -310,1456 -811,1957 -501,501 -1193,811 -1958,811 -765,0 -1457,-310 -1958,-811 -501,-501 -811,-1193 -811,-1957 0,-765 310,-1457 811,-1958 501,-501 1193,-811 1958,-811zm1887 882c-483,-483 -1150,-782 -1887,-782 -737,0 -1404,299 -1887,782 -483,483 -781,1150 -781,1887 0,736 298,1404 781,1886 483,483 1150,782 1887,782 737,0 1404,-299 1887,-782 483,-482 781,-1150 781,-1886 0,-737 -298,-1404 -781,-1887z"/></svg>
