<svg xmlns="http://www.w3.org/2000/svg" xml:space="preserve" width="65mm" height="65mm" version="1.1" style="shape-rendering:geometricPrecision; text-rendering:geometricPrecision; image-rendering:optimizeQuality; fill-rule:evenodd; clip-rule:evenodd" viewBox="0 0 6500 6500" xmlns:xlink="http://www.w3.org/1999/xlink"><path fill="white" d="M5426 4389c-20,-19 -21,-50 -2,-70 19,-20 50,-21 71,-3l227 214 78 -32 -42 -45c-2,-2 -4,-4 -6,-7l-420 -447 -263 176c-2,1 -4,2 -6,3l-8 5c-47,23 -83,42 -130,38 -44,-3 -83,-19 -111,-45 -17,-15 -30,-34 -39,-55 -9,-21 -13,-44 -11,-68 3,-38 19,-77 53,-115l221 -245 -243 0 -212 46c-5,1 -9,2 -14,2l-245 0 -1 4 -2 4 -1 2 0 2 -1 4 -2 4 0 1 -1 3 -2 4 -1 5 -1 2 -3 9 0 1 0 0 0 0 -2 8 -1 3 -1 1 -2 9 -1 2 0 0 -3 10 0 1 0 1 -3 11 0 0 0 0 0 0 -3 11 0 1 0 1 -2 8 -1 2 0 1 -2 10 -1 3 -2 10 0 0 0 0 0 1 -2 10 0 1 0 1 -1 1 -1 8 0 2 -1 2 -1 9 -1 1 0 3 -1 9 0 0 -1 1 -1 8 0 3 0 1c-1,8 -2,16 -3,24l0 0 -2 11 0 0 0 1 0 1 -1 12 0 0c-1,8 -1,16 -2,24l0 1 0 12 0 0 -1 1c0,7 0,15 0,23l0 1 0 0 -1 12 0 0 0 2 0 11 0 9 0 1 0 1 0 0 0 2 0 6 1 3 0 0 0 9 0 2 0 0 0 2 0 1 0 4 0 2 0 1 0 1 0 1 0 2 0 1 1 2 0 2 0 1 0 2 0 0 0 2 0 2 0 1 0 2 0 2 0 1 0 1 1 1 0 2 0 1 0 2 0 2 0 1 0 1 0 1 0 2 1 1 0 4 0 2 0 1 0 0 0 2 0 2 1 6 0 0 0 1 0 1 1 3 0 2 0 2 0 1 0 2 0 0 0 2 1 1 0 2 0 2 0 1 1 4 0 1 0 2 0 2 0 1 1 5 0 2 1 2 222 0c14,0 26,5 35,14l625 536 105 -42 -196 -183c-20,-19 -22,-50 -3,-70 19,-21 51,-22 71,-3l229 214 76 -31 -208 -192c-20,-19 -21,-51 -2,-71 18,-20 50,-21 70,-2l241 223 81 -33 -195 -183zm-2407 -3892c748,0 1427,297 1925,779 493,477 810,1137 841,1870 80,47 153,104 218,169 195,195 315,464 315,761 0,297 -120,566 -315,761 -195,195 -464,316 -761,316 -62,0 -124,-6 -183,-16 -255,278 -565,503 -914,658 -344,154 -725,239 -1126,239 -764,0 -1457,-310 -1958,-811 -501,-501 -811,-1193 -811,-1957 0,-765 310,-1457 811,-1958 501,-501 1194,-811 1958,-811zm1855 850c-480,-464 -1134,-750 -1855,-750 -737,0 -1404,299 -1887,782 -483,483 -782,1150 -782,1887 0,737 299,1404 782,1887 483,482 1150,781 1887,781 387,0 754,-82 1085,-230 319,-141 604,-344 842,-593 -178,-50 -338,-146 -465,-274 -44,-44 -85,-92 -121,-143l1 67c0,2 -1,4 -1,6 -1,13 -4,24 -9,34 5,12 8,25 9,40l0 3 1 89c0,2 -1,5 -1,7 -3,30 -14,53 -32,70 -18,17 -41,26 -69,29l-4 0 0 0 -212 0c-3,0 -5,0 -7,0 -23,-2 -44,-6 -62,-16 -26,-15 -42,-39 -44,-75l0 -2 0 0 0 -63c0,-28 23,-50 50,-50 28,0 50,22 50,50l0 55c3,1 6,1 10,1l214 0c3,0 5,-1 6,-2 0,0 0,-2 1,-5l0 -83 -160 0c-28,0 -50,-22 -50,-50 0,-27 22,-50 50,-50l157 0 3 0 0 -74c-2,0 -5,0 -8,-1l-210 0 0 0c-5,0 -9,0 -13,1l0 39c0,28 -22,50 -50,50 -27,0 -50,-22 -50,-50l0 -54c0,-2 0,-5 1,-7 3,-32 20,-53 46,-66 18,-9 41,-12 64,-13l2 0 0 0 212 0c2,0 4,0 7,1 10,1 19,3 28,5 -22,-43 -42,-87 -59,-133l-2560 0c-28,0 -50,-22 -50,-50l0 -2998c0,-27 22,-50 50,-50l1703 0c28,0 50,23 50,50l0 569c0,28 -22,50 -50,50l-403 0c-40,0 -76,16 -102,43l-1 0c-26,26 -42,62 -42,102 0,40 16,77 42,103 27,27 63,43 103,43l403 0c28,0 50,22 50,50l0 401c0,40 16,77 43,103l2 2c26,25 61,41 100,41 40,0 77,-17 103,-43l2 -2c25,-26 41,-62 41,-101l0 -401c0,-28 22,-50 50,-50l602 0c28,0 50,22 50,50l0 1025 2 -3 0 0 1 -1 6 -6 1 -1 1 -2 0 0 1 -1 0 0 7 -7 0 -1 1 0 6 -8 1 -1 1 -1 0 0 1 -1 7 -8 1 0 0 -1 0 0 6 -6 1 -1 1 -1 1 -1 0 0 1 -2 1 -1 5 -5 1 -1 1 0 0 -1 9 -8c194,-195 464,-316 761,-316l13 1 1 0 1 0 11 0 4 0 0 0 4 0 4 0 1 0 7 0 1 0 4 1c138,6 269,39 389,92 -43,-684 -345,-1298 -808,-1746zm-708 2755l0 -4 -1 0 0 -3 0 -2 0 -1 0 -3 0 -1 0 0 0 -1 0 -2 0 -1 0 -3 0 -2 0 -3 0 -5 0 -2 0 -2 0 -4 0 -1 0 0 0 -5 0 -1 1 -4 0 -3 0 -1 0 0 0 -5 0 0 0 -5 0 -2 0 -2 0 -1 0 -4 0 0 1 -7 0 -4 0 -1 0 -6 0 0 1 -6 0 -6 0 -5 0 -1 1 -5 0 -6 1 -6 0 -6 0 0 1 -5 1 -6 0 -2 1 -8 0 -2 1 -6 0 0 0 -5 1 -6 0 -1 1 -6 1 -7 1 -8 0 -1 1 -6 1 -5 1 -6 0 -1 1 -5 1 -5 1 -1c1,-7 2,-15 4,-22l1 -5c1,-8 3,-15 5,-23l1 -5 2 -6 1 -5 0 0 3 -11 0 0 3 -11 1 -6 3 -10 1 -1 3 -10 1 -6 2 -5 2 -5 3 -11 0 -1 3 -8 1 -2 2 -5 1 -5 2 -6 4 -10 0 -1 4 -10 0 0 2 -5 2 -5 2 -5 0 -1 1 -1 2 -4 1 -3 1 -2 1 -3 2 -4 1 -3 1 -2 1 -3 0 0 2 -4 1 -3 1 -2 1 -2 2 -5 1 -2 1 -3 2 -2 2 -5 1 -2 1 -2 1 -3 3 -6 0 -1 2 -2 1 -2 2 -5 1 -2 1 -3 1 -2 4 -7 1 -2 1 -2 4 -7 1 -2 1 -3 4 -6 1 -3 1 -2 4 -6 0 -1 2 -2 1 -2 0 -1 4 -6 1 -2 1 -2 1 -2 3 -5 1 -2 0 -1115 -502 0 0 351c0,66 -26,126 -69,170l-3 4c-45,44 -106,72 -174,72 -65,0 -126,-27 -170,-70l-3 -2c-44,-45 -72,-106 -72,-174l0 -351 -353 0c-67,0 -129,-28 -173,-72l0 0c-45,-45 -72,-106 -72,-174 0,-67 27,-128 72,-173l0 0c45,-44 106,-72 173,-72l353 0 0 -469 -1603 0 0 2898 2479 0c-10,-38 -18,-77 -24,-116l0 0 0 -1 -1 -11 0 0 -2 -12 0 0 -1 -11 0 0 0 -1 -1 -10 0 0 0 -1 -1 -3 0 -4 0 -4 -1 -1 0 -3 0 -3 0 -4 -1 -4 0 -4 0 -4 0 0 -1 -5 0 -5 0 -5 0 -4 -1 -4 0 -7 0 -4 0 0 0 -8 0 0 0 -2 0 -3 0 -1zm245 -540l0 0 0 1c-1,1 -1,2 -2,3l0 0 0 0 0 0 -1 1 -1 2 0 1 0 0 -1 1 -1 1 0 1 -1 1 -1 1 0 2 -1 1 -1 1 -1 2 -1 1 -1 1 0 2 -1 1 -1 1 0 1 -1 1 0 1 -1 0 0 1 -1 2 -1 1 0 1 -1 1 0 1 -1 1 -2 4 -1 1 0 1 -1 1 -1 2 0 1 -1 1 -1 1 -1 2 0 2 -1 1 -1 1 0 1 -1 1 -2 4 -1 1 0 1 -1 1 0 2 -1 1 -1 1 0 1 -1 2 -1 2 -1 1 0 1 -1 1 0 1 -1 2 -1 1 197 0 215 -46c4,-1 7,-2 11,-2l338 0 100 -111c10,-11 24,-16 37,-16l345 0c10,0 19,3 27,8 60,31 109,57 157,83 52,28 105,56 149,80l171 0c-47,-94 -108,-178 -182,-252 -174,-173 -413,-282 -678,-285l0 0 -12 -1c-270,0 -514,110 -691,286l-7 8 -1 1 -2 2 -5 5 -1 1 -1 1 -7 7 0 1 0 0 0 0 -7 8 -1 0 -2 2 -4 6 -2 1 -1 1 -4 5 -3 3 0 0 -2 3 -5 5 0 1 -2 2 -4 5 -2 2 -1 1 -2 3 -2 2 0 1 -4 4 -1 1 -2 3 -2 3 -2 2 0 0 -2 3 -2 3 -2 1 -1 2 -4 5 -2 3 0 0 -1 1 -3 5 -2 3 -1 0 -1 3 -4 5 -3 3 -2 3 -2 3 0 0 -3 5 -1 1 -2 3 -2 3 -2 3 -2 2 -2 3 0 2 -2 1 -1 3 -2 3 -1 1 -1 2 -2 3 -2 3 -2 3 0 1 -2 2zm-646 -2213l602 0c28,0 50,23 50,50l0 569c0,28 -22,50 -50,50l-602 0c-28,0 -50,-22 -50,-50l0 -569c0,-27 22,-50 50,-50zm552 100l-502 0 0 469 502 0 0 -469zm-2195 3282c0,27 -22,50 -50,50 -27,0 -50,-23 -50,-50l0 -36 -237 0c-2,0 -4,0 -6,0l-1 0c-4,0 -6,0 -7,1 -1,1 -2,3 -2,6l0 105 0 13 0 105c0,3 1,5 2,6 1,1 3,1 7,1l1 0c2,0 4,-1 6,-1l237 0 0 -35c0,-28 23,-50 50,-50 28,0 50,22 50,50l0 40 0 4c0,18 -1,36 -14,55 -15,22 -39,36 -82,36l0 0c-79,0 -165,-3 -243,1 -36,1 -63,-11 -82,-30 -19,-19 -29,-44 -32,-70l0 0 0 0 0 -6 0 -106 0 0 0 -13 0 -106 0 -6 0 0 0 0c3,-26 13,-51 32,-70 19,-19 46,-31 82,-30 78,4 164,0 243,0l0 1c43,0 67,14 82,36 13,19 14,37 14,55l0 4 0 40zm266 -145l294 0c28,0 53,12 72,30 18,18 30,44 30,72l0 236c0,28 -12,54 -30,72 -19,19 -44,30 -72,30l-294 0c-28,0 -53,-11 -71,-30 -19,-18 -30,-44 -30,-72l0 -236c0,-28 11,-54 30,-72 18,-18 43,-30 71,-30zm294 100l-294 0c0,0 0,0 -1,1 0,0 0,0 0,1l0 236c0,1 0,1 0,2 1,0 1,0 1,0l294 0c0,0 1,0 1,0 0,-1 1,-1 1,-2l0 -236c0,-1 -1,-1 -1,-1 0,-1 -1,-1 -1,-1zm361 312c0,28 -22,50 -50,50 -28,0 -50,-22 -50,-50l0 -353c0,-27 22,-50 50,-50l302 0c27,0 50,23 50,50 0,28 -23,50 -50,50l-252 0 0 303zm332 24c-14,24 -44,33 -68,20 -24,-14 -33,-44 -20,-68l66 -120c1,-2 2,-3 3,-5l126 -228c9,-16 26,-25 43,-26l57 0c20,0 38,12 46,29l123 225c1,2 2,4 3,5l65 120c13,24 5,54 -20,68 -24,13 -54,4 -67,-20l-53 -96 -251 0 -53 96zm249 -196l-70 -129 -71 129 141 0zm-1986 426c-27,0 -50,-22 -50,-50 0,-28 23,-50 50,-50l2736 0c28,0 50,22 50,50 0,28 -22,50 -50,50l-2736 0zm4520 -1515l-227 0 0 -1c-8,0 -16,-1 -23,-5 -63,-33 -112,-59 -161,-86 -53,-28 -105,-56 -149,-79l-311 0 -98 109c-1,1 -3,3 -4,4l-293 325c-19,21 -27,40 -29,56 0,8 1,16 4,23 3,7 8,13 14,19 12,11 30,18 51,20 20,1 45,-12 78,-29l6 -2 296 -198c20,-14 47,-11 64,7l426 454 263 -134c8,-4 16,-6 25,-6l119 0c6,-45 9,-91 9,-138 0,-119 -21,-234 -60,-339zm31 577l-87 0 -229 116 47 51c5,5 9,10 12,17 10,26 -2,55 -27,65l-172 71c-2,0 -3,1 -5,2l-354 145c-2,1 -3,1 -5,2l-200 82c-17,8 -38,6 -53,-7l-637 -546 -185 0c43,175 134,331 257,455 130,129 296,223 482,263l1 0 10 3 2 0c63,13 129,20 196,20 270,0 514,-110 690,-286 123,-123 214,-279 257,-453z"/></svg>
