<svg xmlns="http://www.w3.org/2000/svg" xml:space="preserve" width="65mm" height="65mm" version="1.1" style="shape-rendering:geometricPrecision; text-rendering:geometricPrecision; image-rendering:optimizeQuality; fill-rule:evenodd; clip-rule:evenodd" viewBox="0 0 6500 6500" xmlns:xlink="http://www.w3.org/1999/xlink"><path fill="white" d="M3020 497c765,0 1457,310 1958,811 501,501 811,1193 811,1957 0,765 -310,1457 -811,1958 -501,501 -1193,811 -1958,811 -765,0 -1457,-310 -1958,-811 -501,-501 -811,-1193 -811,-1958 0,-764 310,-1456 811,-1957 501,-501 1193,-811 1958,-811zm332 2771c11,-25 41,-36 66,-25 25,12 36,41 25,67l-79 172c-11,25 -41,36 -66,25 -25,-11 -36,-41 -25,-66l79 -173zm-72 -196c11,-25 41,-36 66,-25 25,12 36,41 25,67l-157 344c-11,25 -41,36 -66,25 -25,-11 -36,-41 -25,-66l157 -345zm-1051 185c11,-25 40,-37 66,-25 25,11 36,41 25,66l-79 172c-11,25 -41,36 -66,25 -25,-11 -36,-41 -25,-66l79 -172zm-72 -196c11,-26 40,-37 66,-25 25,11 36,41 25,66l-157 344c-11,25 -41,37 -66,25 -25,-11 -36,-41 -25,-66l157 -344zm1233 -2123c-9,-46 -76,-42 -79,5 -1,3 0,7 0,10 25,134 29,261 -2,394 -28,118 -82,226 -98,345 -9,65 -7,125 3,189l-62 11 137 186 67 -222 -63 11c-21,-128 2,-216 43,-336 28,-81 54,-158 66,-244 17,-118 9,-232 -12,-349zm-320 0c-9,-46 -76,-42 -79,5 -1,3 0,7 0,10 25,134 29,261 -2,394 -28,118 -82,226 -98,345 -9,65 -7,125 3,189l-62 11 137 186 67 -222 -63 11c-21,-128 2,-216 43,-336 28,-81 54,-158 66,-244 17,-118 9,-232 -12,-349zm-320 0c-9,-46 -76,-42 -79,5 -1,3 0,7 0,10 25,134 29,261 -2,394 -28,118 -82,226 -98,345 -9,65 -7,125 3,189l-62 11 137 186 67 -222 -63 11c-21,-128 2,-216 43,-336 28,-81 54,-158 66,-244 17,-118 9,-232 -12,-349zm-1654 1294l253 0c28,0 50,22 50,50l0 41 2600 0c28,0 50,22 50,50l0 111c2,0 5,0 7,0l215 0c4,0 8,0 12,1l0 -16c0,-28 22,-50 50,-50l1044 0c28,0 50,22 50,50l0 1950c168,-350 262,-741 262,-1154 0,-737 -299,-1404 -782,-1887 -483,-483 -1150,-781 -1887,-781 -737,0 -1404,298 -1887,781 -483,483 -782,1150 -782,1887 0,547 165,1055 446,1478l3486 -2 0 -535c-6,1 -12,2 -18,2l-192 0c-9,0 -16,-1 -24,-3l0 129c0,28 -22,50 -50,50l-2600 0 0 67c0,28 -22,50 -50,50l-253 0c-83,0 -159,-34 -214,-89l0 0c-55,-55 -90,-131 -90,-214l0 -1663c0,-83 35,-159 90,-214l0 0c55,-55 131,-89 214,-89zm4231 2375c0,-2 0,-3 0,-5l0 -2083 -944 0 0 2271 0 0c0,28 -22,50 -50,50l-3466 2c81,110 170,214 266,310l4 4 3756 0c3,0 6,0 9,1l5 -5c162,-162 304,-345 420,-545zm-4084 649c472,422 1094,678 1777,678 683,0 1305,-256 1777,-678l-3554 0zm3383 -2617l453 0c31,0 60,13 81,34 22,22 35,51 35,85l0 656c0,33 -13,63 -35,85 -21,21 -50,34 -81,34l-453 0c-31,0 -60,-13 -82,-34 -21,-22 -35,-52 -35,-85l0 -656c0,-33 14,-63 35,-85 22,-21 51,-34 82,-34zm453 100l-453 0c-6,0 -11,2 -15,6 -3,3 -6,8 -6,13l0 656c0,5 3,10 6,13 4,4 9,6 15,6l453 0c6,0 11,-2 15,-6 3,-3 5,-8 5,-13l0 -656c0,-5 -2,-10 -5,-13 -4,-4 -9,-6 -15,-6zm-3306 1065c52,0 98,21 132,55l0 0c34,34 55,80 55,132 0,51 -21,98 -55,132l0 0c-34,34 -80,54 -132,54 -51,0 -98,-20 -132,-54l0 0c-34,-34 -55,-81 -55,-132 0,-52 21,-98 55,-132l0 0c34,-34 81,-55 132,-55zm62 125c-16,-16 -38,-25 -62,-25 -24,0 -46,9 -61,25 -16,16 -26,38 -26,62 0,24 10,45 26,61 15,16 37,25 61,25 24,0 46,-9 62,-25 15,-16 25,-37 25,-61 0,-24 -10,-46 -25,-62zm2448 -1354c-4,0 -8,1 -12,1l-215 0c-2,0 -5,-1 -7,-1l0 1543c8,-1 15,-2 24,-2l192 0c6,0 12,1 18,1l0 -1542zm-2984 1760l0 -1 0 -1961 0 -1 0 -40 -203 0c-56,0 -107,23 -144,59 -37,37 -60,88 -60,144l0 1663c0,56 23,107 60,143 37,37 88,60 144,60l203 0 0 -66zm2650 -1912l-2550 0 0 1861 2550 0 0 -1861z"/><path fill="white" d="M2884 2584l562 0c45,0 86,18 115,48 30,29 48,70 48,115l0 792c0,45 -18,86 -48,116 -29,29 -70,48 -115,48l-562 0c-45,0 -86,-19 -115,-48l0 -1c-30,-29 -48,-70 -48,-115l0 -792c0,-45 18,-86 48,-115l0 0c29,-30 70,-48 115,-48zm562 100l-562 0c-17,0 -33,7 -45,18l0 0c-11,12 -18,28 -18,45l0 792c0,18 7,33 18,45l0 0c12,12 28,19 45,19l562 0c17,0 33,-8 45,-19 11,-12 18,-27 18,-45l0 -792c0,-17 -7,-33 -18,-45 -12,-11 -28,-18 -45,-18z"/><path fill="white" d="M1754 2584l562 0c45,0 86,18 115,48 30,29 48,70 48,115l0 792c0,45 -18,86 -48,116 -29,29 -70,48 -115,48l-562 0c-45,0 -86,-19 -115,-48l0 -1c-30,-29 -48,-70 -48,-115l0 -792c0,-45 18,-86 48,-115l0 0c29,-30 70,-48 115,-48zm562 100l-562 0c-17,0 -33,7 -45,18l0 0c-11,12 -18,28 -18,45l0 792c0,18 7,33 18,45l0 0c12,12 28,19 45,19l562 0c17,0 33,-8 45,-19 11,-12 18,-27 18,-45l0 -792c0,-17 -7,-33 -18,-45 -12,-11 -28,-18 -45,-18z"/></svg>