<svg xmlns="http://www.w3.org/2000/svg" xml:space="preserve" width="65mm" height="65mm" version="1.1" style="shape-rendering:geometricPrecision; text-rendering:geometricPrecision; image-rendering:optimizeQuality; fill-rule:evenodd; clip-rule:evenodd" viewBox="0 0 6500 6500" xmlns:xlink="http://www.w3.org/1999/xlink"><path fill="white" d="M3017 497c765,0 1457,309 1958,810 501,501 811,1194 811,1958 0,533 -151,1031 -412,1453l-2 3c-113,183 -246,351 -397,502 -501,501 -1193,811 -1958,811 -764,0 -1456,-310 -1957,-811 -151,-151 -285,-319 -398,-502l-2 -3c-261,-422 -411,-920 -411,-1453 0,-764 310,-1457 811,-1958 501,-501 1193,-810 1957,-810zm1887 881c-483,-483 -1150,-781 -1887,-781 -737,0 -1404,298 -1887,781 -436,436 -721,1022 -773,1674 89,-35 178,-64 265,-89 103,-29 207,-52 311,-69l50 -64 -256 0c-27,0 -50,-23 -50,-50 0,-13 5,-25 13,-34l247 -310 -210 -2c-28,0 -50,-22 -50,-50 0,-13 5,-24 14,-33l-1 0 506 -549c18,-20 50,-22 70,-3l550 550c20,19 20,51 0,70 -10,10 -22,15 -35,15l-232 0 269 306c18,21 16,52 -4,70 -10,9 -22,13 -33,13l-275 0 33 39c252,14 501,62 747,134 110,33 219,71 329,113l0 -192 -460 0c-27,0 -50,-22 -50,-50 0,-13 6,-26 14,-35l407 -513 -380 0c-27,0 -50,-23 -50,-50 0,-13 5,-25 13,-34l355 -445 -318 -3c-27,0 -50,-22 -49,-50 0,-13 5,-24 13,-33l0 0 679 -738c18,-20 50,-21 70,-3l739 739c19,19 19,51 0,70 -10,10 -23,15 -36,15l-349 0 387 440c18,20 16,52 -5,70 -9,8 -21,13 -33,13l-406 0 444 525c18,21 16,52 -6,70 -9,8 -20,12 -32,12l0 0 -445 0 0 334 -1 0 0 19c167,-108 345,-203 533,-279 26,-10 54,-20 84,-29 22,-7 45,-14 69,-20l151 -734c5,-23 26,-40 49,-40l0 0 1040 0c27,0 50,23 50,50 0,5 -1,9 -2,13l-129 669c145,15 285,35 415,60 108,21 210,46 300,74 -55,-645 -340,-1224 -772,-1656zm782 1887c0,-42 -1,-83 -3,-125 -95,-31 -205,-58 -326,-82 -130,-25 -271,-45 -415,-60l-65 338 -7 189c-1,28 -24,49 -52,48 -19,0 -35,-12 -43,-27l-226 456c-8,16 -25,28 -45,28l-142 -2 0 142c0,27 -22,50 -50,50 -27,0 -50,-23 -50,-50l0 -143 -219 -3c-3,0 -5,0 -7,0l-972 -11 0 152c0,28 -22,50 -50,50 -28,0 -50,-22 -50,-50l0 -153 -200 -2c-17,1 -35,-7 -45,-23 -14,-24 -7,-55 16,-69l993 -620 51 -246 -17 5c-27,8 -52,17 -76,27 -421,169 -788,439 -1099,733 -290,275 -532,571 -724,826l3440 0c243,-402 383,-874 383,-1378zm-782 1887c125,-125 237,-261 335,-409l-4444 0c98,148 211,284 335,409 483,483 1150,782 1887,782 737,0 1404,-299 1887,-782zm-4555 -1887c0,504 140,976 383,1378l1007 0 2 -2c201,-271 460,-596 778,-896 138,-131 287,-258 448,-373 -235,-114 -471,-209 -709,-280 -208,-61 -417,-104 -629,-123l190 224c18,21 15,52 -6,70 -9,8 -21,12 -32,12l0 0 -319 0 0 236c0,27 -23,50 -50,50l-299 0c-28,0 -50,-23 -50,-50l0 -236 -329 0c-28,0 -50,-22 -50,-50 0,-13 5,-26 14,-35l141 -178c-63,13 -126,29 -190,47 -99,28 -199,63 -298,103 -2,34 -2,69 -2,103zm2668 -14l0 0 0 -334 -302 0 0 229 302 108 0 -3zm-758 -1562l305 3c11,-1 23,3 33,11 22,17 26,48 8,70l-355 446 379 0 0 0c11,0 22,3 31,11 21,17 25,48 8,69l-410 518 1197 0 -442 -523c-9,-9 -14,-21 -14,-34 0,-28 22,-50 50,-50l403 0 -386 -438c-8,-9 -14,-22 -14,-35 0,-28 23,-50 50,-50l340 0 -615 -615 -568 617zm-1246 1263c-4,13 -12,24 -24,30l-152 193 836 0 -187 -221c-10,-6 -18,-15 -22,-27l-102 -119c-8,-9 -13,-22 -13,-35 0,-28 22,-50 50,-50l271 0 -268 -304c-8,-9 -14,-22 -14,-35 0,-28 23,-50 50,-50l222 0 -426 -426 -394 428 197 2c12,-1 24,2 34,10 21,17 25,49 8,70l-248 312 255 0 0 0c11,0 22,3 31,11 22,17 25,48 8,69l-112 142zm150 323l0 186 199 0 0 -186 -199 0zm387 1769c-28,0 -50,-22 -50,-50 0,-27 22,-50 50,-50l614 0c27,0 50,23 50,50 0,28 -23,50 -50,50l-614 0zm307 301c-28,0 -50,-22 -50,-50 0,-27 22,-50 50,-50l614 0c27,0 50,23 50,50 0,28 -23,50 -50,50l-614 0zm711 -301c-27,0 -50,-22 -50,-50 0,-27 23,-50 50,-50l614 0c28,0 50,23 50,50 0,28 -22,50 -50,50l-614 0zm142 556c-27,0 -50,-22 -50,-50 0,-28 23,-50 50,-50l330 0c28,0 50,22 50,50 0,28 -22,50 -50,50l-330 0zm572 -255c-27,0 -50,-22 -50,-50 0,-27 23,-50 50,-50l330 0c28,0 50,23 50,50 0,28 -22,50 -50,50l-330 0zm595 -184c-27,0 -50,-23 -50,-50 0,-28 23,-50 50,-50l614 0c28,0 50,22 50,50 0,27 -22,50 -50,50l-614 0zm-158 439c-27,0 -50,-22 -50,-50 0,-28 23,-50 50,-50l307 0c28,0 50,22 50,50 0,28 -22,50 -50,50l-307 0zm1027 -2220l-240 0 -373 546 341 4 272 -550zm-361 0l-261 0 -567 539 457 5 371 -544zm-405 0l-193 0 -854 532 481 6 566 -538zm-146 -100l229 0 189 -1012 -210 0 -208 1012zm331 0l273 0 173 -1012 -257 0 -189 1012zm374 0l247 0 195 -1012 -268 0 -174 1012z"/></svg>