<?xml version="1.0" encoding="UTF-8"?>
<!DOCTYPE svg PUBLIC "-//W3C//DTD SVG 1.1//EN" "http://www.w3.org/Graphics/SVG/1.1/DTD/svg11.dtd">
<!-- Creator: CorelDRAW X8 -->
<svg xmlns="http://www.w3.org/2000/svg" xml:space="preserve" width="33mm" height="33mm" version="1.1" style="shape-rendering:geometricPrecision; text-rendering:geometricPrecision; image-rendering:optimizeQuality; fill-rule:evenodd; clip-rule:evenodd"
viewBox="0 0 3300 3300"
 xmlns:xlink="http://www.w3.org/1999/xlink">
 <defs>
  <style type="text/css">
   <![CDATA[
    .fil0 {fill:none}
    .fil1 {fill:url(#id0);fill-rule:nonzero}
   ]]>
  </style>
  <linearGradient id="id0" gradientUnits="userSpaceOnUse" x1="1514.29" y1="543.2" x2="3980.61" y2="4499.83">
   <stop offset="0" style="stop-opacity:1; stop-color:#00437B"/>
   <stop offset="1" style="stop-opacity:1; stop-color:#00B8B0"/>
  </linearGradient>
 </defs>
 <g id="Слой_x0020_1">
  <metadata id="CorelCorpID_0Corel-Layer"/>
  <g id="_2052952065280">
   <rect class="fil0" width="3300" height="3300"/>
   <path class="fil1" d="M864 620l1572 0c27,0 50,22 50,50l0 1027c-27,-27 -62,-47 -100,-58l0 -919 -1472 0 0 918c-38,9 -72,28 -100,54l0 -1022c0,-28 23,-50 50,-50zm1308 2293c-28,0 -50,-22 -50,-50 0,-27 22,-50 50,-50l104 0 0 -607c-94,113 -206,197 -325,251 -117,53 -241,77 -363,72 -122,-5 -241,-39 -347,-103 -83,-49 -158,-116 -220,-201l0 588 114 0c28,0 50,23 50,50 0,28 -22,50 -50,50l-164 0 -154 0c-28,0 -50,-22 -50,-50 0,-27 22,-50 50,-50l104 0 0 -587c-59,73 -127,131 -201,177 -120,74 -257,115 -406,131 -27,3 -52,-16 -55,-44 -3,-27 17,-52 44,-55 135,-15 258,-52 364,-117 100,-61 186,-148 254,-268l0 -119c-31,-18 -52,-51 -52,-89 0,-56 46,-102 102,-102 57,0 102,46 102,102 0,38 -21,71 -52,89l0 95c1,1 2,3 2,4 64,141 159,245 269,311 92,55 195,84 300,88 106,5 215,-16 318,-63 140,-63 270,-174 366,-331l0 -108c-29,-18 -48,-50 -48,-86 0,-57 46,-102 102,-102 57,0 102,45 102,102 0,40 -23,74 -56,91l0 110c63,118 144,211 243,277 104,68 228,108 375,116 28,2 49,25 47,53 -1,27 -25,48 -52,47 -166,-10 -307,-55 -425,-133 -71,-47 -134,-106 -188,-177l0 588 114 0c28,0 50,23 50,50 0,28 -22,50 -50,50l-164 0 -154 0zm-1055 -1224l1061 0c-30,26 -52,61 -64,100l-933 0c-12,-39 -35,-74 -64,-100zm-501 -1302l2037 0c27,0 50,22 50,50l0 1532c0,28 -23,50 -50,50l-174 0c29,-27 51,-61 63,-100l61 0 0 -1432 -1937 0 0 1432 87 0c12,39 33,73 62,100l-199 0c-28,0 -51,-22 -51,-50l0 -1532c0,-28 23,-50 51,-50zm566 1532l931 0c11,39 33,73 62,100l-1056 0c29,-27 51,-61 63,-100z"/>
  </g>
 </g>
</svg>
