<?xml version="1.0" encoding="UTF-8"?>
<!DOCTYPE svg PUBLIC "-//W3C//DTD SVG 1.1//EN" "http://www.w3.org/Graphics/SVG/1.1/DTD/svg11.dtd">
<!-- Creator: CorelDRAW X8 -->
<svg xmlns="http://www.w3.org/2000/svg" xml:space="preserve" width="33mm" height="33mm" version="1.1" style="shape-rendering:geometricPrecision; text-rendering:geometricPrecision; image-rendering:optimizeQuality; fill-rule:evenodd; clip-rule:evenodd"
viewBox="0 0 3300 3300"
 xmlns:xlink="http://www.w3.org/1999/xlink">
 <defs>
  <style type="text/css">
   <![CDATA[
    .fil0 {fill:none}
    .fil1 {fill:url(#id0);fill-rule:nonzero}
   ]]>
  </style>
  <linearGradient id="id0" gradientUnits="userSpaceOnUse" x1="1067.33" y1="861.89" x2="3975.04" y2="4309.99">
   <stop offset="0" style="stop-opacity:1; stop-color:#00437B"/>
   <stop offset="1" style="stop-opacity:1; stop-color:#00B8B0"/>
  </linearGradient>
 </defs>
 <g id="Слой_x0020_1">
  <metadata id="CorelCorpID_0Corel-Layer"/>
  <rect class="fil0" width="3300" height="3300"/>
  <path class="fil1" d="M2136 293c171,0 325,70 437,182 112,112 181,266 181,437 0,161 -61,308 -162,418l0 1 -1 1 0 0c-6,6 -12,12 -18,18 -112,112 -266,181 -437,181 -203,143 -390,280 -572,420 -183,141 -363,286 -550,443 -20,19 -51,18 -70,-1l-91 -91 -139 178c-51,65 -71,130 -69,189 3,47 20,91 49,128 30,38 72,68 121,87 73,29 162,32 254,-1 108,-39 533,-481 776,-734 64,-67 116,-121 143,-148 2,-2 4,-4 6,-5l7 -5c90,-69 197,-93 297,-82 101,12 196,61 259,140l4 4 2 3c67,89 84,187 69,282 -18,109 -79,213 -159,293l-340 340c-20,20 -52,20 -71,0 -20,-19 -20,-51 0,-70l341 -341c66,-66 116,-151 130,-238 12,-70 -1,-141 -50,-205l-4 -6c-46,-58 -117,-94 -193,-103 -76,-8 -157,10 -225,62l-4 4c-35,34 -82,84 -141,144 -249,260 -683,713 -814,759 -115,42 -229,37 -323,0 -66,-25 -122,-67 -163,-118 -42,-53 -67,-116 -70,-186 -4,-81 23,-169 90,-254l146 -188 -134 -134 0 0c-20,-20 -20,-51 0,-70 157,-161 311,-331 459,-518 144,-184 282,-384 410,-610 3,-166 72,-315 181,-424 6,-6 12,-12 18,-18l2 -1c110,-101 257,-163 418,-163zm-764 1468c-20,19 -51,19 -71,0 -19,-20 -19,-51 0,-71l203 -202c19,-20 51,-20 70,0 20,19 20,51 0,70l-202 203zm616 -248c-111,-27 -211,-84 -290,-163 -77,-78 -134,-176 -162,-285 -111,183 -229,351 -351,506 -138,176 -283,337 -432,490l229 229c176,-146 346,-283 521,-418 155,-119 314,-237 485,-359zm-163 -1016l726 726c65,-87 103,-194 103,-311 0,-143 -58,-273 -151,-367 -94,-93 -224,-152 -367,-152 -117,0 -225,39 -311,104zm659 800l-733 -733c-83,92 -134,214 -134,348 0,144 58,273 152,367 94,94 223,152 367,152 134,0 256,-51 348,-134z"/>
 </g>
</svg>
