<?xml version="1.0" encoding="UTF-8"?>
<!DOCTYPE svg PUBLIC "-//W3C//DTD SVG 1.1//EN" "http://www.w3.org/Graphics/SVG/1.1/DTD/svg11.dtd">
<!-- Creator: CorelDRAW X8 -->
<svg xmlns="http://www.w3.org/2000/svg" xml:space="preserve" width="33mm" height="33mm" version="1.1" style="shape-rendering:geometricPrecision; text-rendering:geometricPrecision; image-rendering:optimizeQuality; fill-rule:evenodd; clip-rule:evenodd"
viewBox="0 0 3300 3300"
 xmlns:xlink="http://www.w3.org/1999/xlink">
 <defs>
  <style type="text/css">
   <![CDATA[
    .fil0 {fill:none}
    .fil1 {fill:url(#id0);fill-rule:nonzero}
   ]]>
  </style>
  <linearGradient id="id0" gradientUnits="userSpaceOnUse" x1="1314.52" y1="620.32" x2="4056.76" y2="4530.34">
   <stop offset="0" style="stop-opacity:1; stop-color:#00437B"/>
   <stop offset="1" style="stop-opacity:1; stop-color:#00B8B0"/>
  </linearGradient>
 </defs>
 <g id="Слой_x0020_1">
  <metadata id="CorelCorpID_0Corel-Layer"/>
  <rect class="fil0" width="3300" height="3300"/>
  <path class="fil1" d="M914 335c83,0 158,34 212,88 55,54 88,130 88,212 0,83 -33,158 -88,213l-3 2c-54,53 -127,85 -209,85 -82,0 -157,-33 -212,-87l0 -1c-54,-54 -88,-129 -88,-212 0,-82 34,-157 88,-212l0 0c54,-54 129,-88 212,-88zm971 24c0,-28 23,-50 50,-50 28,0 50,22 50,50l0 101 928 0c28,0 50,22 50,50l0 1608c0,28 -22,50 -50,50l-886 0 301 622c12,25 2,54 -23,66 -25,12 -55,2 -67,-23l-292 -603 -312 604c-12,25 -42,34 -67,22 -24,-13 -34,-43 -21,-67l319 -621 -487 0c-27,0 -50,-22 -50,-50 0,-27 23,-50 50,-50l1485 0 0 -1508 -928 0 -641 0c-28,0 -50,-23 -50,-50 0,-28 22,-50 50,-50l591 0 0 -101zm-1318 1818c-3,1 -6,3 -9,4 -28,11 -58,13 -85,7l0 0c-26,-5 -51,-17 -71,-32 -39,-29 -65,-72 -65,-115l0 -781c0,-4 1,-8 1,-11 16,-86 57,-152 122,-200 57,-42 131,-69 223,-82 1,-1 3,-2 5,-3 16,-8 34,-6 48,2 17,6 31,22 33,42 0,2 0,4 0,6 26,51 56,106 87,161 20,36 39,72 58,108l149 -281c8,-17 26,-27 44,-27l0 0 809 0c5,0 9,0 13,2 57,10 97,46 119,91 13,27 19,58 20,89 0,30 -7,61 -20,88 -22,47 -64,84 -124,94 -2,0 -5,0 -8,0l0 0 -659 0 0 1472c0,4 0,7 -1,11 -11,75 -52,123 -104,149 -29,14 -62,21 -94,20 -32,-1 -64,-8 -93,-22 -21,-11 -41,-25 -58,-43 -20,23 -44,39 -70,48 -29,11 -59,14 -89,11 -29,-3 -57,-11 -82,-25 -57,-30 -99,-84 -99,-149l0 -634zm117 -1109c-69,11 -124,31 -165,61 -44,32 -71,77 -82,135l0 777c0,11 10,24 24,35 10,7 20,12 31,14l0 0c10,2 20,2 29,-2 17,-6 33,-23 46,-56l0 -613c0,-28 23,-50 50,-50 28,0 50,22 50,50l0 1392c0,25 19,47 45,61 14,8 30,13 46,14 15,2 30,0 44,-5 24,-9 45,-33 54,-75l0 -598c0,-28 22,-50 50,-50 27,0 50,22 50,50l0 600c5,33 26,58 53,71 16,8 34,12 51,13 17,0 33,-3 48,-11 24,-12 43,-35 49,-73l0 -1519c0,-27 23,-50 50,-50l705 0c22,-4 37,-19 46,-37 7,-14 10,-29 10,-45 0,-16 -4,-31 -10,-45 -9,-18 -24,-32 -45,-37l-776 0 -179 338c-4,9 -12,17 -22,22 -24,12 -54,2 -66,-23 -29,-57 -65,-123 -102,-189 -28,-51 -57,-103 -84,-155zm372 -574c-37,-36 -87,-59 -142,-59 -55,0 -105,23 -141,59l0 0c-36,36 -59,86 -59,141 0,56 23,106 59,142 36,36 86,58 141,58 54,0 103,-21 139,-56l3 -2c36,-36 58,-86 58,-142 0,-55 -22,-105 -58,-141z"/>
 </g>
</svg>
