<svg xmlns="http://www.w3.org/2000/svg" xml:space="preserve" width="15cm" height="15cm" version="1.1" style="shape-rendering:geometricPrecision; text-rendering:geometricPrecision; image-rendering:optimizeQuality; fill-rule:evenodd; clip-rule:evenodd" viewBox="0 0 1500 1500" xmlns:xlink="http://www.w3.org/1999/xlink"><path fill="#00437b" d="M1232 112c-19,-9 -41,-14 -67,-14 -26,0 -49,6 -70,16 -21,11 -39,26 -53,46l49 38c11,-13 22,-22 32,-27 9,-6 21,-9 34,-9 14,0 25,4 33,12 9,8 13,20 13,34 0,15 -4,30 -12,44 -8,14 -22,32 -42,54 -20,21 -51,53 -95,96l0 58 234 0 9 -63 -148 0c38,-34 67,-62 87,-84 20,-23 34,-42 42,-59 7,-18 11,-36 11,-55 0,-18 -5,-35 -15,-50 -9,-16 -23,-28 -42,-37zm-412 271c-56,-21 -123,-31 -201,-31 -71,0 -136,12 -192,36 -57,23 -101,57 -133,101 -32,43 -47,94 -47,152 0,75 23,137 71,186 49,49 130,90 244,124 51,16 90,30 117,43 27,14 45,29 56,47 11,16 17,37 17,62 0,38 -15,69 -45,91 -29,21 -68,32 -119,32 -50,0 -96,-9 -139,-25 -42,-16 -82,-41 -122,-74l-124 132c47,43 103,78 167,104 66,26 141,39 225,39 85,0 158,-13 219,-39 62,-27 109,-64 142,-111 33,-49 49,-104 49,-167 0,-87 -25,-155 -74,-202 -50,-48 -128,-88 -233,-121 -56,-17 -97,-32 -125,-45 -28,-12 -47,-25 -58,-39 -11,-14 -17,-33 -17,-55 0,-32 13,-56 38,-72 24,-17 58,-26 101,-26 80,0 156,28 227,84l113 -129c-47,-43 -99,-75 -157,-97z"/></svg>