<svg xmlns="http://www.w3.org/2000/svg" xml:space="preserve" width="15mm" height="15mm" version="1.1" style="shape-rendering:geometricPrecision; text-rendering:geometricPrecision; image-rendering:optimizeQuality; fill-rule:evenodd; clip-rule:evenodd" viewBox="0 0 1500 1500" xmlns:xlink="http://www.w3.org/1999/xlink"><path fill="#00437b" d="M1417 808l0 428 0 62c0,34 -28,63 -63,63l0 0c-35,0 -63,-29 -63,-63l0 -62 -1082 0 0 62c0,34 -28,63 -63,63l0 0c-35,0 -63,-29 -63,-63l0 -62 0 -428 0 -41c0,-68 55,-123 122,-123l1090 0c67,0 122,55 122,123l0 41zm-1152 -669l968 0c71,0 130,58 130,130l0 265 -177 0 0 -103c-203,-143 -701,-179 -871,-6l0 109 -179 0 0 -265c0,-72 58,-130 129,-130z"/></svg>
