<svg xmlns="http://www.w3.org/2000/svg" xml:space="preserve" width="15mm" height="15mm" version="1.1" style="shape-rendering:geometricPrecision; text-rendering:geometricPrecision; image-rendering:optimizeQuality; fill-rule:evenodd; clip-rule:evenodd" viewBox="0 0 1500 1500" xmlns:xlink="http://www.w3.org/1999/xlink"><path fill="#00437b" d="M426 146c114,0 207,93 207,207 0,115 -93,208 -207,208 -115,0 -208,-93 -208,-208 0,-114 93,-207 208,-207zm324 614l0 1c0,-71 170,-139 336,-138 159,1 315,67 315,137l0 594 -377 0 0 -73c-158,-160 -383,-170 -535,3l0 70 -390 0 0 -593c0,-71 169,-139 335,-138 160,1 316,67 316,137zm0 61c72,0 131,59 131,132 0,72 -59,131 -131,131 -72,0 -131,-59 -131,-131 0,-73 59,-132 131,-132zm339 -675c115,0 208,93 208,207 0,115 -93,208 -208,208 -114,0 -207,-93 -207,-208 0,-114 93,-207 207,-207z"/></svg>