<svg xmlns="http://www.w3.org/2000/svg" xml:space="preserve" width="15mm" height="15mm" version="1.1" style="shape-rendering:geometricPrecision; text-rendering:geometricPrecision; image-rendering:optimizeQuality; fill-rule:evenodd; clip-rule:evenodd" viewBox="0 0 1500 1500" xmlns:xlink="http://www.w3.org/1999/xlink"><path fill="#00437b" d="M191 875c79,70 219,71 381,53 -48,157 -102,210 -35,362 11,26 15,63 -17,85 -32,22 -93,19 -157,5 -170,-35 -204,-90 -206,-182 -1,-47 13,-86 22,-153 6,-46 16,-107 12,-170zm946 -610c0,149 0,299 0,448 -246,75 -671,253 -905,103 -281,-179 -247,-523 15,-669 198,-110 667,47 890,118zm66 119c-14,4 -30,-5 -34,-21 -4,-16 4,-32 19,-37 66,-20 98,-3 135,18 26,15 57,31 114,31 15,0 28,14 28,30 0,17 -13,30 -28,30 -70,0 -107,-20 -139,-38 -27,-15 -50,-27 -95,-13zm-12 284c-15,5 -30,-4 -34,-20 -5,-16 4,-33 18,-37 67,-21 98,-3 136,18 26,14 56,31 113,31 16,0 28,13 28,30 0,17 -12,30 -28,30 -70,0 -107,-21 -139,-38 -27,-15 -49,-28 -94,-14zm12 -140c-14,5 -30,-4 -34,-20 -4,-16 4,-33 19,-37 66,-21 98,-3 135,18 26,14 57,31 114,31 15,0 28,13 28,30 0,17 -13,30 -28,30 -70,0 -107,-21 -139,-38 -27,-15 -50,-28 -95,-14zm-765 -240c57,0 108,23 145,60l0 0c37,37 59,88 59,145 0,56 -22,107 -59,144l-1 0c-36,37 -87,60 -144,60 -56,0 -107,-23 -144,-60l0 0c-37,-37 -60,-88 -60,-144 0,-57 23,-108 60,-145 37,-37 88,-60 144,-60zm95 110c-24,-24 -58,-40 -95,-40 -37,0 -70,16 -95,40 -24,24 -39,58 -39,95 0,37 15,70 39,94 25,25 58,40 95,40 37,0 71,-15 95,-40 24,-24 39,-57 39,-94 0,-38 -15,-71 -39,-95z"/></svg>
