<svg xmlns="http://www.w3.org/2000/svg" xml:space="preserve" width="15mm" height="15mm" version="1.1" style="shape-rendering:geometricPrecision; text-rendering:geometricPrecision; image-rendering:optimizeQuality; fill-rule:evenodd; clip-rule:evenodd" viewBox="0 0 1500 1500" xmlns:xlink="http://www.w3.org/1999/xlink"><path fill="#00437b" d="M750 551l-1 0 -87 0c0,-28 0,-56 0,-84 -46,0 -91,0 -137,0 -2,35 0,66 -1,100 -276,254 -390,405 -292,773 51,0 103,0 154,0 24,-22 31,-41 31,-61l332 0 1 0 332 0c0,20 7,39 31,61 51,0 103,0 154,0 98,-368 -16,-519 -292,-773 -1,-34 1,-65 -1,-100 -46,0 -91,0 -137,0 0,28 0,56 0,84l-87 0zm-604 -20c-17,-42 -14,-98 -11,-150 4,-73 35,-98 107,-136 133,-71 291,-82 508,-85 217,3 375,14 508,85 72,38 103,63 107,136 3,52 6,108 -11,150 -15,39 -44,47 -76,44 -49,-4 -190,-40 -219,-72 -24,-27 -43,-74 -83,-168 -76,-2 -151,-4 -226,-6 -75,2 -150,4 -226,6 -40,94 -59,141 -83,168 -29,32 -170,68 -219,72 -32,3 -61,-5 -76,-44zm379 219l113 0 0 55 -113 0 0 -55zm0 228l112 0 0 55 -112 0 0 -55zm337 0l112 0 0 55 -112 0 0 -55zm-169 0l113 0 0 55 -113 0 0 -55zm-168 -114l113 0 0 55 -113 0 0 -55zm337 0l113 0 0 55 -113 0 0 -55zm-168 0l112 0 0 55 -112 0 0 -55zm168 -114l113 0 0 55 -113 0 0 -55zm-168 0l112 0 0 55 -112 0 0 -55z"/></svg>
