<svg xmlns="http://www.w3.org/2000/svg" xml:space="preserve" width="15mm" height="15mm" version="1.1" style="shape-rendering:geometricPrecision; text-rendering:geometricPrecision; image-rendering:optimizeQuality; fill-rule:evenodd; clip-rule:evenodd" viewBox="0 0 1500 1500" xmlns:xlink="http://www.w3.org/1999/xlink"><path fill="#00437b" d="M335 44l830 0c49,0 89,41 89,90l0 411 -1008 0 0 -411c0,-49 40,-90 89,-90zm100 652l0 0c15,0 26,11 26,26l0 193c0,15 -11,27 -26,27l0 0c-15,0 -26,-12 -26,-27l0 -193c0,-15 11,-26 26,-26zm2 -482l0 0c14,0 26,12 26,27l0 193c0,15 -12,27 -26,27l0 0c-15,0 -27,-12 -27,-27l0 -193c0,-15 12,-27 27,-27zm84 1151c0,2 0,5 0,7l0 0c0,46 -38,84 -84,84l-24 0c-46,0 -84,-38 -84,-84l0 0c0,-2 0,-5 0,-7l-7 0c-42,0 -76,-34 -76,-76l0 -679 992 0 0 679c0,40 -31,73 -70,76l0 0 0 0c0,46 -38,84 -84,84l-25 0c-46,0 -83,-38 -83,-84l0 0 -455 0z"/></svg>
