<svg xmlns="http://www.w3.org/2000/svg" xml:space="preserve" width="15mm" height="15mm" version="1.1" style="shape-rendering:geometricPrecision; text-rendering:geometricPrecision; image-rendering:optimizeQuality; fill-rule:evenodd; clip-rule:evenodd" viewBox="0 0 1500 1500" xmlns:xlink="http://www.w3.org/1999/xlink"><path fill="#00437b" d="M1470 523l-171 185c-202,-168 -410,-244 -606,-232 -178,11 -345,94 -488,247l-175 -194c463,-438 978,-478 1440,-6zm-237 257l-196 212c-27,-21 -53,-40 -80,-56 -82,-49 -164,-69 -244,-62 -80,7 -157,43 -229,106 -9,7 -17,15 -26,24l-189 -209c128,-136 274,-209 429,-218 171,-11 355,56 535,203zm-262 284l-232 252 -216 -240c6,-6 12,-12 18,-17 57,-50 117,-78 179,-84 63,-6 128,11 194,50 19,11 38,24 57,39z"/></svg>
