<svg xmlns="http://www.w3.org/2000/svg" xml:space="preserve" width="297mm" height="210mm" version="1.1" style="shape-rendering: geometricPrecision; text-rendering: geometricPrecision; fill-rule: evenodd; clip-rule: evenodd;" viewBox="0 0 29700 21000" xmlns:xlink="http://www.w3.org/1999/xlink">
 <defs>
  <style type="text/css">
   
    .str2 {stroke:white;stroke-width:77.29}
    .str1 {stroke:white;stroke-width:70.55}
    .str0 {stroke:white;stroke-width:77.29;stroke-linecap:round;stroke-linejoin:round}
    .str3 {stroke:white;stroke-width:169.71;stroke-linecap:round;stroke-linejoin:round}
    .fil0 {fill:none}
    .fil1 {fill:none;fill-rule:nonzero}
   
  </style>
 </defs>
 <g id="x0020_1">
  <g id="_2268843410928">
   <g>
    <path class="fil0 str0 dePhZPnN_0" d="M18872 14212c-35,-16 -64,-17 -68,18 7,-95 0,-190 -23,-284 -4,-29 -19,-55 -43,-73 -53,-29 -107,33 -135,86 28,-95 30,-197 5,-293 -6,-40 -45,-48 -73,-27 -46,24 -90,54 -129,89 99,-91 136,-231 95,-359 -59,12 -110,46 -144,95l276 -477c40,-60 77,-159 -2,-207 -27,-11 -58,-4 -77,19 19,-69 49,-135 87,-195 54,-82 100,-185 67,-276 -35,-77 -130,-106 -202,-63 83,-122 208,-416 52,-492 -112,-54 -270,119 -300,210 35,-103 142,-441 -74,-386 -115,30 -207,209 -216,318l22 -251c-121,-7 -237,54 -300,158 33,-83 64,-183 10,-255 -26,-30 -68,-40 -106,-27 53,-103 67,-207 17,-269m-19 -342c26,-38 53,-85 42,-122 -10,-28 -53,-89 -89,-57 54,-44 102,-96 142,-153 26,-40 79,-135 32,-178 -33,-17 -73,-15 -104,7 48,-81 387,-417 143,-476 -44,-6 -89,0 -130,17 -34,11 -68,23 -101,32 68,-141 -35,-242 -173,-162 56,-45 127,-114 113,-194 -42,-3 -84,6 -122,25 53,-56 113,-108 176,-153 108,-76 228,-214 150,-321l-301 41c108,-67 67,-260 -49,-312 -93,-27 -193,-14 -277,35 0,-24 0,-251 -8,-252 -68,-10 -160,36 -202,-19 -28,-38 26,-156 20,-202 -5,-73 -62,-133 -135,-141 90,-82 177,-167 261,-255 35,-27 54,-67 53,-111 -19,-75 -105,-79 -168,-67 57,-28 104,-72 135,-128 24,-59 -6,-143 -67,-148 -22,0 -43,7 -64,5 64,-36 417,-194 305,-317 -58,-63 -316,38 -341,104 32,-67 38,-144 17,-216 -69,13 -132,50 -177,103 47,-67 169,-347 61,-411 -86,-52 -220,134 -257,192 47,-66 78,-142 93,-221 4,-76 4,-150 0,-225 -54,29 -96,77 -118,134 34,-95 131,-261 56,-365 -67,-95 -221,-8 -308,51 14,-56 40,-109 76,-154 38,-48 54,-110 44,-170 -2,-9 -8,-17 -16,-21 -12,-5 -26,4 -36,12l-108 90 145 -280c30,-57 114,-184 54,-242 -43,-38 -110,-27 -138,22 22,-84 28,-171 17,-258 -120,45 -227,119 -310,216 92,-112 190,-249 153,-389 0,0 -139,37 -151,40 45,-67 119,-160 125,-246 15,-246 -162,-63 -257,-86 -126,-30 134,-240 83,-351 -51,1 -99,26 -129,67 108,-134 192,-404 48,-552 -67,-72 -168,-5 -219,67 51,-73 376,-660 95,-621 -51,8 -146,113 -178,152 0,-77 42,-363 -51,-379 -42,-8 -158,113 -170,149 49,-147 -42,-307 -48,-454 0,-68 34,-202 -77,-196 -110,7 -160,279 -122,360 -36,-77 -93,-143 -164,-189 -52,-35 -118,516 -125,546 -10,-31 -26,-59 -46,-84 -18,-26 -49,-39 -80,-33 -39,16 -47,68 -47,111 0,126 20,253 59,373 -68,-54 -258,-351 -302,-124 -7,102 16,202 67,291 -70,-108 -184,-182 -311,-202 -15,142 38,284 143,381 -45,-50 -103,-85 -168,-101 -174,-13 -52,118 -18,171 71,126 133,257 184,392 -66,-101 -192,-146 -307,-109 -21,67 43,134 98,178 90,78 174,164 250,256 -64,-40 -139,-56 -213,-46 -11,68 51,115 103,157 35,27 163,116 162,166 -1,50 -17,11 -43,44 -14,19 -67,0 -83,29 -16,29 48,105 67,134 -36,-54 -278,-289 -269,-105 14,63 44,121 88,168 -67,-72 -269,-230 -372,-135 -42,40 0,245 52,278 -123,-75 -261,-121 -404,-135 -9,203 85,396 251,512l-189 -6c-107,-7 -169,128 -93,208 110,105 232,198 364,274 -51,0 -142,-25 -183,18 -85,92 231,417 303,487 -50,-22 -263,-102 -316,-48 -33,36 -42,90 -22,135 -120,-52 -254,-59 -379,-22 1,51 26,98 67,127 40,28 84,48 131,60 -113,-24 -304,-86 -401,6 -151,147 24,304 135,345 -37,-14 -80,0 -100,34 -20,40 -13,88 18,119 62,63 172,42 242,95 -37,-28 -202,47 -218,88 -16,40 16,104 15,146 -73,-9 -202,-67 -261,11 -88,124 187,264 270,289 -106,-9 -225,0 -174,115 66,113 166,202 286,255 -59,-23 -135,46 -135,97 -7,90 104,188 162,245 -25,-24 -186,-4 -207,22 -34,44 39,247 47,317 -45,-50 -141,-193 -221,-147 -80,46 -21,159 21,213 -91,-60 -233,-149 -345,-148 -184,0 -103,189 0,265 -117,-84 -260,-122 -404,-105 -49,157 158,262 319,297 -54,-13 -207,-16 -237,44 -51,100 159,252 237,256 -76,-3 -321,-44 -251,103 39,81 356,198 435,226 -59,-21 -301,-47 -318,44 -12,58 131,118 169,153 96,87 205,160 322,216 -223,-59 -99,76 -4,173m-14 40c-46,-6 -97,-4 -121,6 -114,48 -40,149 -11,227 -75,27 -173,-67 -239,-106 -75,-58 -167,-88 -262,-84 -11,0 -27,11 -21,21 36,63 82,121 135,170 -110,-62 -238,-86 -363,-67 -12,105 41,209 135,260 -88,-57 -194,-83 -298,-73 9,40 17,80 25,120 32,31 73,53 117,62 -34,-7 -72,-18 -111,-28 108,600 91,1212 17,1818l7 0 -8 5c-10,84 -21,167 -34,250 42,48 87,93 135,135 -42,36 -139,39 -167,92l-1 0c15,34 23,70 24,107 49,51 102,100 156,145 -51,-29 -104,-57 -158,-82 -14,221 -40,443 -78,661 -6,35 -18,69 -36,100m2726 -10619c12,9 24,19 37,27"></path>
   </g>
   <path class="fil1 str1 dePhZPnN_1" d="M27428 10448c261,21 452,-74 569,-320 93,-197 81,-407 -39,-589 88,-170 119,-372 53,-556 -9,-25 -20,-51 -33,-74 0,-22 -3,-48 -6,-70 -4,-44 -15,-88 -29,-134 -13,-45 -36,-92 -53,-127 -49,-100 -119,-184 -200,-245 44,-297 -142,-652 -449,-720 -120,-26 -235,-9 -347,43 23,-122 29,-268 -23,-385 -33,-74 -82,-114 -135,-132 -79,-146 -201,-268 -358,-327 -36,-119 -113,-214 -204,-296 -100,-87 -270,-173 -397,-193 -112,-20 -201,-20 -310,13 -134,-91 -308,-141 -470,-116 -152,-83 -366,-88 -522,-11l-4 -1c-60,-61 -129,-108 -215,-117 -129,-13 -225,73 -278,181 -34,19 -67,40 -98,65 -61,-77 -159,-146 -252,-175 -150,-48 -286,-37 -435,17 -30,12 -59,27 -87,44 -96,0 -201,12 -316,44 -160,-130 -375,-172 -575,-131 -161,34 -298,113 -408,235 -97,105 -155,229 -150,374 2,36 9,75 20,109 -22,36 -40,73 -54,113 -155,-14 -307,-26 -456,30 -219,85 -335,285 -384,506 -52,246 -8,509 187,681 77,68 158,105 224,131 -31,128 -42,260 -30,391 -33,121 -26,285 19,401 12,30 26,59 41,85m1925 4479c224,552 609,975 1056,1359 -30,522 -110,1954 -147,2628m814 3c-112,-770 -123,-2333 -132,-2912 214,-151 632,-714 1025,-1365 92,-7 187,-35 281,-86 12,206 73,527 318,573 44,9 72,3 113,2 111,-4 212,-49 277,-141 17,135 87,259 175,360 146,169 343,298 555,365 123,42 297,57 419,15 223,-73 314,-291 247,-501 -7,-23 -16,-45 -26,-67l0 0c164,56 357,89 521,18 275,-120 273,-436 161,-684 -55,-125 -132,-239 -225,-338 93,-154 101,-339 4,-494 -50,-81 -127,-148 -223,-196 176,-37 351,-114 433,-284 90,-188 29,-413 -69,-586 -19,-33 -38,-66 -60,-97 -144,-211 -357,-333 -616,-288 -79,14 -150,40 -208,65 -27,-75 -74,-146 -144,-202 -48,-144 -150,-278 -270,-370m-2456 2473c121,201 319,374 547,439 -436,588 -826,1030 -826,1030 0,0 -9,-479 -22,-1152 145,-63 248,-164 301,-317m-1764 -58c174,-27 323,-145 418,-295 51,-25 102,-59 151,-101 -27,167 -45,354 32,520 96,212 325,305 547,308 -24,572 -45,1063 -62,1355 -590,-323 -918,-759 -1122,-1259"></path>
   <path class="fil1 str2 dePhZPnN_2" d="M5629 4460c103,-213 271,-338 514,-311 70,-7 130,-3 197,16 245,-42 496,101 576,340 42,-29 85,-47 136,-50 199,-9 286,245 311,407 7,7 15,14 22,21 147,-119 307,-160 489,-116 98,24 184,75 261,138 64,50 140,152 177,225 78,77 131,174 147,284 143,-60 297,-98 451,-54 82,26 170,76 252,161 160,172 182,348 137,503 -45,157 -154,296 -260,420 160,-27 299,-10 412,40 348,125 591,499 388,849 175,-2 302,46 380,114 78,67 110,149 106,224 -4,137 -114,244 -234,292 124,39 230,134 284,271 59,145 49,322 -12,464 -64,153 -186,279 -333,334 -148,56 -316,45 -477,-44l0 0c32,89 58,177 70,265m-1072 475c-19,-22 -36,-45 -53,-70 -34,-50 -57,-92 -77,-114 -15,65 -66,114 -119,151 -102,72 -241,100 -364,99 -45,292 -310,292 -506,132 113,470 -392,854 -814,641 -112,-59 -194,-142 -261,-249l-1 0c-23,160 -59,339 -159,471 -134,175 -328,224 -538,194 35,533 61,1088 66,1639 3,-75 20,-149 54,-217 -31,-67 -44,-145 -41,-235 5,-55 18,-114 40,-177 12,-31 27,-61 44,-93 18,-31 36,-65 60,-95 48,-63 100,-112 151,-150 29,-42 63,-75 99,-101 65,-218 265,-385 494,-401 72,-172 257,-265 437,-278 96,-6 193,20 273,74 76,26 140,75 193,134 55,-31 121,-55 190,-72 27,-14 54,-20 84,-18 81,-49 171,-70 261,-68m-1358 3293c-40,-18 -75,-47 -101,-87 -342,558 -706,860 -961,1017 -3,663 115,2066 156,2496m-1219 -35c185,-1214 325,-3391 325,-3391 -333,-602 -594,-1179 -779,-1631 -166,245 -546,267 -771,92 -86,-66 -131,-148 -132,-217 -42,39 -109,156 -244,233 -477,270 -1090,-466 -694,-869 -322,-192 -424,-606 -323,-951 18,-74 48,-140 77,-202 6,-13 12,-24 19,-36 -27,-250 68,-521 290,-656 -45,6 -84,9 -129,4 -411,-36 -711,-451 -447,-815l0 0c-126,28 -255,40 -382,12 -286,-65 -431,-316 -436,-601 -4,-230 90,-429 294,-538 5,-142 51,-284 144,-393 -11,-91 -4,-194 25,-296 -156,-177 -190,-386 -98,-604 90,-212 233,-302 385,-329 3,-238 173,-449 407,-499 33,-104 89,-183 171,-253 4,-101 66,-167 164,-191 84,-20 204,-12 361,47 -49,-164 -29,-306 33,-418 124,-222 427,-331 668,-261 48,-83 107,-143 187,-195 42,-194 158,-328 352,-385 193,-56 343,-10 452,82 29,-80 70,-146 132,-206 78,-74 161,-113 265,-137 233,-53 397,17 509,136 89,94 142,206 188,325 12,-3 23,-5 35,-6m-1937 5273l20 0c39,-13 81,-23 121,-31 -98,-26 -172,-89 -187,-192 -61,-22 -121,-57 -178,-106 -28,172 -89,288 -160,355 -88,86 -207,110 -313,47 -80,-45 -141,-129 -175,-213 -41,139 -134,247 -259,317 215,-18 385,109 505,275 40,-297 334,-484 626,-452m491 -24l7 -23c-19,6 -38,10 -56,14 17,3 33,6 49,9m729 1262c-4,-35 -12,-68 -23,-98 121,-67 245,-164 297,-297 29,106 86,207 172,278 -39,1034 -99,2085 -191,2770 0,0 -416,-144 -985,-1154 19,-63 25,-134 15,-211 141,89 264,109 353,93 113,-19 188,-102 183,-217 -2,-89 -52,-178 -109,-243 263,75 520,-89 586,-350 67,-250 -68,-477 -298,-571m814 1702c2,418 -8,834 -35,1237 -22,305 -35,487 -41,762 258,-147 593,-345 915,-714 3,-65 23,-127 45,-173 -264,138 -568,1 -700,-252 -76,-141 -92,-311 -39,-463 -85,-110 -139,-259 -145,-397"></path>
   <g>
    <path class="fil0 str3 dePhZPnN_3" d="M9167 16367l-2827 0 0 -1396 2396 -5734 2203 0 0 5722 851 0 0 1408 -851 0 0 1125m-1772 104l0 -1229m0 -1408l0 -3826 -1385 3826 1385 0m3776 2631c-354,-692 -324,-1542 -324,-1620l0 -4167c0,-840 210,-1500 630,-1981 420,-481 1046,-721 1879,-721 833,0 1457,240 1873,721 417,481 625,1141 625,1981l0 4167c0,417 -155,1320 -413,1661m-2085 -719c235,0 388,-98 460,-295 72,-197 108,-428 108,-692l0 -4076c0,-303 -33,-555 -97,-755 -64,-201 -221,-301 -471,-301 -250,0 -407,98 -471,295 -65,197 -97,450 -97,761l0 4076c0,658 190,987 568,987m6233 -545l-2827 0 0 -1396 2395 -5734 2203 0 0 5722 852 0 0 1408 -852 0 0 1252m-1776 -26l5 -1226m0 -1408l0 -3826 -1385 3826 1385 0"></path>
   </g>
  </g>
 </g>
<style data-made-with="vivus-instant">.dePhZPnN_0{stroke-dasharray:49813 49815;stroke-dashoffset:49814;animation:dePhZPnN_draw 2490ms ease-in-out 0ms forwards;}.dePhZPnN_1{stroke-dasharray:40556 40558;stroke-dashoffset:40557;animation:dePhZPnN_draw 2490ms ease-in-out 3ms forwards;}.dePhZPnN_2{stroke-dasharray:61222 61224;stroke-dashoffset:61223;animation:dePhZPnN_draw 2490ms ease-in-out 6ms forwards;}.dePhZPnN_3{stroke-dasharray:99934 99936;stroke-dashoffset:99935;animation:dePhZPnN_draw 2490ms ease-in-out 10ms forwards;}@keyframes dePhZPnN_draw{100%{stroke-dashoffset:0;}}@keyframes dePhZPnN_fade{0%{stroke-opacity:1;}85.07462686567165%{stroke-opacity:1;}100%{stroke-opacity:0;}}</style></svg>