<svg viewBox="0 0 690 582" xmlns="http://www.w3.org/2000/svg">
<path opacity=".05" fill="white" fill-rule="evenodd" d="M 0.288858 302.407C 0.302134 302.4 0.315105 302.392 0.327739 302.383L 153.066 200.227C 158.382 196.672 165.514 200.482 165.514 206.877L 165.514 271.606C 165.514 274.283 164.174 276.783 161.946 278.266L 12.4322 377.768C 7.11538 381.306 0 377.494 0 371.108L 0 302.899C 0 302.695 0.110533 302.507 0.288858 302.407ZM 0 553.676L 0 489.782C 0 489.397 0.396709 489.14 0.748508 489.297C 0.764153 489.303 0.780269 489.31 0.796513 489.315C 124.768 530.783 240.712 516.671 356.348 502.559C 461.792 489.824 567.081 476.917 677.772 506.51C 677.792 506.515 677.812 506.522 677.832 506.529C 678.093 506.626 678.266 506.875 678.266 507.153L 678.266 572.528C 678.266 572.828 677.98 573.045 677.691 572.964C 677.663 572.956 677.633 572.951 677.603 572.949C 647.825 570.711 623.752 566.582 601.53 562.798C 579.297 559.011 558.763 555.569 535.757 554.364C 506.9 552.816 472.335 556.942 431.6 561.758C 431.56 561.763 431.519 561.768 431.479 561.773L 423.877 562.79C 423.839 562.795 423.8 562.8 423.762 562.805C 403.557 565.212 384.122 567.619 365.612 570.026C 263.556 583.279 182.806 593.605 68.861 569.854C 56.6637 567.273 45.7015 564.691 34.7393 562.109C 23.7847 559.529 12.83 556.949 0.642697 554.37C 0.625993 554.366 0.609331 554.362 0.592883 554.357L 0.497377 554.331C 0.203377 554.249 0 553.981 0 553.676ZM 0 473.473L 0 409.691C 0 409.302 0.360928 409.012 0.74121 409.097C 0.761715 409.102 0.782147 409.107 0.802071 409.114C 124.771 450.58 240.714 436.468 356.348 422.529C 461.785 409.622 567.067 396.888 677.75 426.473C 677.785 426.482 677.821 426.487 677.856 426.487C 678.082 426.487 678.266 426.67 678.266 426.896L 678.266 492.357C 678.266 492.668 678.013 492.921 677.701 492.921C 677.666 492.921 677.63 492.918 677.596 492.911C 644.886 486.721 616.956 482.421 590.877 479.497C 564.784 476.743 540.544 475.366 514.451 475.882C 500.864 476.055 486.814 476.743 471.837 477.776C 456.865 478.98 440.967 480.529 423.834 482.593C 423.824 482.594 423.815 482.595 423.805 482.596L 388.476 486.724C 388.467 486.725 388.458 486.726 388.449 486.727C 228.041 506.002 115.182 519.596 0.470187 474.164C 0.465561 474.162 0.460876 474.16 0.456212 474.159C 0.181953 474.057 0 473.795 0 473.503L 0 473.473ZM 507.348 3.27008L 513.09 3.27008C 517.508 3.27008 521.09 6.8518 521.09 11.2701L 521.09 96.9467C 521.09 100.912 517.875 104.126 513.91 104.126C 509.945 104.126 506.731 100.912 506.731 96.9467L 506.731 3.88764C 506.731 3.54657 507.007 3.27008 507.348 3.27008ZM 169.528 287.251L 175.115 287.251C 179.533 287.251 183.115 290.832 183.115 295.251L 183.115 381.177C 183.115 385.099 179.935 388.279 176.012 388.279C 172.09 388.279 168.91 385.099 168.91 381.177L 168.91 287.868C 168.91 287.527 169.187 287.251 169.528 287.251ZM 504.426 201.721C 504.419 201.715 504.411 201.71 504.403 201.704L 343.534 94.1103C 341.315 92.6256 339.982 90.1311 339.982 87.4605L 339.982 23.1509C 339.982 16.7732 347.08 12.9597 352.397 16.4809C 402.212 49.4678 452.125 82.5952 501.794 115.863C 504.011 117.348 505.341 119.84 505.341 122.508L 505.341 201.261C 505.341 201.732 504.804 202.002 504.426 201.721ZM 689.711 283.797C 689.698 283.805 689.685 283.813 689.672 283.821L 537.091 385.968C 531.776 389.526 524.641 385.716 524.641 379.32L 524.641 314.41C 524.641 311.742 525.971 309.25 528.188 307.765C 577.851 274.501 627.759 241.374 677.569 208.257C 682.887 204.722 690 208.534 690 214.92L 690 283.306C 690 283.51 689.889 283.698 689.711 283.797ZM 689.711 91.8952C 689.698 91.9027 689.685 91.9107 689.672 91.9192L 537.091 194.066C 531.776 197.624 524.641 193.814 524.641 187.418L 524.641 122.508C 524.641 119.84 525.971 117.348 528.188 115.863C 577.857 82.5952 627.77 49.4678 677.585 16.4809C 682.902 12.9597 690 16.7732 690 23.1509L 690 91.4037C 690 91.6078 689.889 91.7959 689.711 91.8952ZM 689.711 187.76C 689.698 187.768 689.685 187.776 689.672 187.784L 537.091 289.931C 531.776 293.489 524.641 289.679 524.641 283.283L 524.641 218.534C 524.641 215.872 525.965 213.385 528.174 211.899C 577.842 178.489 627.753 145.489 677.568 112.39C 682.886 108.857 690 112.669 690 119.055L 690 187.269C 690 187.473 689.889 187.661 689.711 187.76ZM 504.426 393.623C 504.419 393.617 504.411 393.612 504.403 393.606L 340.125 283.732C 340.036 283.672 339.982 283.572 339.982 283.464C 339.982 283.357 339.928 283.256 339.839 283.197L 188.23 182.4C 185.999 180.918 184.659 178.417 184.659 175.738L 184.659 110.809C 184.659 104.42 191.778 100.609 197.093 104.155C 248.153 138.214 299.091 172.398 350.029 206.436C 350.119 206.495 350.172 206.596 350.172 206.703C 350.172 206.811 350.226 206.911 350.316 206.971L 501.773 307.767C 504.002 309.25 505.341 311.75 505.341 314.427L 505.341 393.163C 505.341 393.634 504.804 393.904 504.426 393.623ZM 504.437 297.761C 504.422 297.753 504.408 297.745 504.394 297.735L 340.053 187.647C 340.009 187.617 339.982 187.567 339.982 187.513C 339.982 187.459 339.955 187.409 339.91 187.379L 188.23 86.5355C 185.999 85.0526 184.659 82.5519 184.659 79.8735L 184.659 14.9441C 184.659 8.55534 191.778 4.74426 197.094 8.28795C 248.178 42.3417 299.139 76.4066 350.101 110.618C 350.146 110.648 350.172 110.699 350.172 110.752C 350.172 110.806 350.199 110.856 350.244 110.886L 501.779 211.901C 504.004 213.385 505.341 215.883 505.341 218.558L 505.341 297.23C 505.341 297.694 504.842 297.987 504.437 297.761ZM 185.563 192.406C 185.578 192.414 185.592 192.423 185.606 192.432L 346.622 300.192C 348.84 301.677 350.172 304.171 350.172 306.841L 350.172 371.108C 350.172 377.494 343.057 381.306 337.74 377.768L 188.226 278.266C 185.998 276.783 184.659 274.283 184.659 271.606L 184.659 192.938C 184.659 192.473 185.158 192.18 185.563 192.406ZM 0.288853 110.505C 0.302132 110.498 0.315107 110.49 0.327744 110.482L 153.066 8.32533C 158.382 4.77006 165.514 8.58009 165.514 14.9751L 165.514 79.8722C 165.514 82.5513 164.172 85.0526 161.941 86.5353L 12.4274 185.882C 7.11021 189.415 0 185.603 0 179.219L 0 110.997C 0 110.793 0.110531 110.605 0.288853 110.505ZM 0.288858 206.37C 0.302134 206.363 0.315105 206.355 0.327739 206.346L 153.066 104.19C 158.382 100.635 165.514 104.445 165.514 110.84L 165.514 175.741C 165.514 178.418 164.174 180.918 161.946 182.401L 12.4322 281.903C 7.11538 285.441 0 281.629 0 275.243L 0 206.862C 0 206.658 0.110533 206.47 0.288858 206.37Z"/>
</svg>
