<svg xmlns="http://www.w3.org/2000/svg" viewBox="0 0 4562 7000" class="svg svg-logo"><path fill="white" d="M3533 0l1022 0 0 939 -356 0 -666 0 0 -665 0 -274zm-3532 0l0 0 2867 0 0 274 0 665 -285 0 -380 0c-183,0 -333,150 -333,333 0,183 150,332 333,332l380 0 285 0 0 383 0 283c0,183 150,333 333,333 183,0 332,-150 332,-333l0 -283 0 -383 666 0 356 0 0 3429 -4554 0 0 -5033zm192 5262c-40,0 -107,0 -149,40 -44,43 -44,115 -44,146l0 356c0,30 0,102 44,145 42,40 109,40 149,40l403 0c40,0 107,0 149,-40 44,-43 44,-115 44,-145l0 -103 -207 0 0 114 -374 0 0 -379 374 0 0 104 207 0 0 -92c0,-31 0,-103 -44,-146 -42,-40 -109,-40 -149,-40l-403 0zm1485 553l-468 0 0 -379 468 0 0 379zm-483 -553l0 0c-40,0 -107,0 -148,40 -45,43 -45,115 -45,146l0 356c0,30 0,102 45,145 41,40 108,40 148,40l498 0c40,0 107,0 149,-40 44,-43 44,-115 44,-145l0 -356c0,-31 0,-103 -44,-146 -42,-40 -109,-40 -149,-40l-498 0zm1587 0l-662 0 0 727 208 0 0 -553 479 0 0 -174 -25 0zm392 210c27,50 80,150 105,196l-214 0c26,-46 82,-146 109,-196zm83 -210l0 0 -167 0 -411 727 217 0c0,0 66,-125 77,-147l400 0c12,22 80,147 80,147l236 0 -417 -727 -15 0zm712 0c-38,0 -90,6 -121,33 -43,37 -43,96 -43,116l0 129 184 0 0 -117 321 0c21,0 25,5 25,5 3,2 6,7 6,23l0 57c0,16 -4,20 -5,21 -4,4 -10,5 -22,5l-248 0 0 160 254 0c16,0 26,4 28,6 2,2 6,7 6,24l0 64c0,12 -3,20 -5,22 -2,3 -8,5 -29,5l-340 0 0 -114 -190 0 0 133c0,35 4,85 37,117 33,34 92,38 139,38l371 0c82,0 139,-15 175,-45 33,-27 50,-65 50,-113l0 -86c0,-53 -21,-86 -39,-105 -10,-12 -25,-20 -40,-28 10,-7 21,-13 29,-22 28,-31 31,-62 31,-89l0 -82c0,-39 -5,-83 -40,-116 -30,-27 -74,-41 -133,-41l-401 0zm-3808 1021l108 264 2 0 106 -264 131 0 0 355 -77 0 0 -299 -126 299 -68 0 -126 -297 0 297 -76 0 0 -355 126 0zm665 147l186 0 0 56 -186 0 0 96 195 0 0 56 -272 0 0 -355 272 0 0 56 -195 0 0 91zm432 150c31,-30 42,-69 42,-148l0 -149 289 0 0 297 35 0 0 140 -71 0 0 -82 -253 0 0 82 -72 0 0 -140 30 0 0 0zm117 -239l0 0 0 91c0,72 -8,119 -36,148l173 0 0 -239 -137 0zm822 -58l0 355 -77 0 0 -234c0,-11 1,-37 6,-63l-1 0 -168 297 -110 0 0 -355 77 0 0 233c0,11 -1,38 -6,63l1 0 168 -296 110 0zm504 297l0 -297 77 0 0 297 36 0 0 140 -72 0 0 -82 -304 0 0 -355 76 0 0 297 187 0zm684 -297l0 355 -77 0 0 -234c0,-11 0,-37 6,-63l-1 0 -168 297 -110 0 0 -355 77 0 0 233c0,11 -1,38 -6,63l1 0 168 -296 110 0zm317 147l186 0 0 -147 77 0 0 355 -77 0 0 -152 -186 0 0 152 -77 0 0 -355 77 0 0 147zm583 140l-25 68 -80 0 133 -355 113 0 135 355 -78 0 -25 -68 -173 0zm86 -235l0 0 -69 185 138 0 -69 -185zm184 665l-4554 0 0 -89 4554 0 0 89z"></path></svg>