<svg xmlns="http://www.w3.org/2000/svg" width="1829px" height="1048px" version="1.1" viewBox="0 0 1833 1051"><path fill="white" fill-rule="nonzero" class="fil0" d="M48 994l45 -52 2 -3 -5 -4 -51 60 1 0 -40 46 5 4 44 -51 -1 0zm1177 -298l10 0 1 3 1 2 1 0 2 1 3 1 4 -1 2 -1 2 -2 0 -3 10 0 0 2 -1 2 -2 3 -2 2 -3 2 -3 1 -3 1 -4 0 -5 0 -2 -1 -3 -1 -3 -2 -3 -2 -1 -3 -1 -4zm6 57l0 0 25 -41 15 0 0 64 -15 0 0 -42 -25 42 -15 0 0 -64 15 0 0 41zm-662 0l0 0 15 0 -1 4 -1 4 -2 4 -3 4 -1 1 -3 2 -2 2 -2 1 -3 1 -4 1 -3 0 -4 0 -6 0 -6 -1 -5 -2 -3 -2 -2 -2 -2 -2 -2 -2 -1 -2 -2 -4 -1 -3 -1 -4 0 -4 0 -4 0 -6 1 -5 1 -5 2 -4 1 -3 3 -3 2 -2 3 -2 2 -2 3 -1 5 -1 4 -1 3 0 4 0 4 1 3 0 3 1 3 2 2 1 4 3 3 4 1 4 2 4 0 4 -15 0 -1 -4 -1 -3 -2 -2 -2 -1 -2 -1 -2 0 -3 0 -2 0 -2 0 -2 1 -3 1 -2 3 -2 4 -2 5 0 7 0 5 1 4 1 3 2 3 2 3 3 2 3 0 3 1 4 0 3 -1 2 -2 2 -1 1 -2 1 -2 1 -4zm63 -41l0 0 15 0 24 64 -16 0 -4 -12 -23 0 -4 12 -16 0 24 -64zm-1 41l0 0 17 0 -8 -24 -9 24zm84 -5l0 0 0 28 -15 0 0 -64 15 0 0 24 23 0 0 -24 15 0 0 64 -15 0 0 -28 -23 0zm91 -36l0 0 15 0 24 64 -16 0 -4 -12 -23 0 -4 12 -16 0 24 -64zm-1 41l0 0 17 0 -8 -24 -9 24zm77 -29l0 0 -19 0 0 -12 53 0 0 12 -19 0 0 52 -15 0 0 -52zm89 53l0 0 -4 0 -4 0 -4 -1 -3 -2 -3 -2 -3 -2 -2 -2 -2 -2 -2 -2 -1 -3 -2 -6 -1 -6 -1 -5 1 -6 1 -6 2 -5 3 -6 2 -2 2 -2 3 -2 3 -2 3 -1 4 -1 4 -1 4 0 4 0 4 1 4 1 3 1 3 1 2 2 3 1 2 3 2 2 1 3 2 2 1 3 1 7 1 7 -1 7 -1 6 -3 6 -1 2 -2 3 -2 2 -3 2 -2 1 -3 2 -3 1 -4 1 -4 0 -4 0zm0 -12l0 0 3 0 2 -1 3 0 1 -2 2 -1 1 -1 2 -4 1 -3 1 -4 0 -5 0 -6 -1 -3 -1 -4 -2 -3 -1 -2 -2 -1 -1 -1 -3 -1 -2 0 -3 0 -3 0 -3 1 -3 1 -2 3 -2 3 -2 3 0 5 -1 5 1 5 1 5 1 4 2 3 3 1 2 2 3 1 3 0zm67 -53l0 0 29 0 5 0 4 1 4 1 4 2 3 3 2 4 2 4 0 5 0 4 -1 3 -1 3 -1 2 -1 2 -2 2 -1 1 -2 1 -4 2 -4 1 -4 0 -3 1 -15 0 0 22 -14 0 0 -64zm14 12l0 0 0 17 12 0 5 0 2 -1 1 -1 1 -1 1 -2 1 -1 0 -2 -1 -3 0 -2 -2 -2 -1 -1 -2 0 -2 -1 -3 0 -12 0zm86 29l0 0 26 -41 15 0 0 64 -15 0 0 -42 -26 42 -15 0 0 -64 15 0 0 41zm-395 -564l192 111 0 84 -192 -111 0 -84zm-11 90l0 0 11 0 0 103 -11 0 0 -103zm375 -276l0 0 10 0 0 104 -10 0 0 -104zm-552 415l0 0 8 3 10 3 14 4 17 4 19 4 11 2 12 1 12 2 12 1 21 2 21 0 20 1 21 0 19 -1 20 0 39 -3 38 -4 38 -4 37 -5 38 -4 38 -4 18 -2 19 -1 20 -2 19 0 20 -1 19 0 20 1 21 1 21 1 20 2 21 3 22 4 22 4 23 5 4 1 0 75 -17 -4 -8 -2 -23 -4 -17 -3 -19 -3 -22 -3 -24 -2 -16 -1 -16 -1 -17 0 -16 -1 -32 1 -32 2 -32 2 -32 3 -63 8 -32 3 -32 4 -32 3 -32 2 -32 2 -16 0 -16 1 -33 -1 -16 -1 -16 -1 -27 -3 -24 -3 -21 -5 -17 -4 -15 -4 -11 -3 -8 -3 -4 -1 0 -74 16 3zm0 85l0 0 8 3 10 3 14 3 17 5 19 3 11 2 12 2 12 1 12 2 21 1 21 1 20 1 21 -1 19 0 20 -1 39 -3 38 -3 38 -5 37 -4 38 -5 38 -4 18 -1 19 -2 20 -1 19 -1 20 0 19 0 20 0 21 1 21 2 20 2 21 3 22 3 22 5 23 5 4 1 0 75 -17 -5 -8 -2 -23 -4 -17 -2 -19 -3 -22 -3 -24 -2 -16 -2 -16 -1 -17 0 -16 0 -32 1 -32 1 -32 3 -32 3 -63 7 -32 4 -32 3 -32 3 -32 3 -32 2 -16 0 -16 0 -33 0 -16 -1 -16 -1 -27 -3 -24 -4 -21 -4 -17 -4 -15 -4 -11 -3 -8 -3 -4 -1 0 -75 16 4zm754 -500l0 0 0 84 -192 111 0 -85 192 -110zm-395 0l0 0 193 110 0 85 -193 -111 0 -84zm193 207l0 0 0 84 -364 -209 0 -85 364 210zm0 94l0 0 0 85 -364 -210 0 -85 364 210zm-375 -304l0 0 0 85 -192 110 0 -84 192 -111zm0 94l0 0 0 85 -192 111 0 -85 192 -111zm0 95l0 0 0 84 -192 111 0 -84 192 -111zm577 -90l0 0 0 84 -192 111 0 -84 192 -111zm0 94l0 0 0 85 -192 111 0 -85 192 -111zm497 614l-5 -4 -91 106 5 5 89 -104 2 -3zm-136 110l-3 -1 -6 -1 -5 -1 -3 0 -1 1 -5 6 -9 9 -21 20 -25 23 -25 22 1 0 -13 10 -11 8 -9 6 -3 1 -2 1 -2 0 0 -1 0 -2 4 -4 5 -6 16 -14 -1 0 18 -17 9 -10 9 -9 7 -10 6 -9 2 -4 2 -4 1 -4 0 -4 0 -2 -1 -2 -1 -1 -2 -1 -3 -2 -2 0 -5 0 -4 1 -4 2 -6 3 -4 3 -4 3 -7 6 -7 8 -8 6 -7 7 -11 11 -14 15 -16 15 1 0 -10 8 -10 7 -5 3 -4 2 -4 1 -3 0 -2 0 -1 -1 -1 -2 0 -2 1 -4 1 -3 3 -5 4 -5 -1 0 8 -10 10 -11 23 -22 19 -19 6 -6 1 -1 1 -2 0 -1 0 0 -1 -1 -11 3 -8 1 -10 0 -3 0 -2 -1 -6 -2 -4 -4 -4 -4 -8 12 -7 9 -8 12 -9 11 -9 11 -4 4 -4 4 -4 3 -4 3 -7 2 -6 2 0 -4 7 -12 4 -7 3 -7 3 -7 3 -7 1 -7 1 -6 -1 -3 -1 -4 -2 -2 -1 -2 -3 -1 -2 -1 -3 0 -4 1 -4 1 -5 2 -6 3 -6 3 -6 3 -6 4 -7 5 -7 5 -7 6 -7 7 -7 7 -6 8 -7 8 -5 9 -3 6 1 0 -3 7 -3 8 -3 8 -1 6 0 5 1 4 1 3 2 2 3 1 3 1 5 0 7 0 5 -2 8 -4 9 -5 10 -7 10 -7 7 -7 6 -5 3 -3 15 -6 -1 0 7 -3 7 -3 6 -4 6 -4 9 -7 7 -8 7 -7 8 -9 1 0 3 0 5 0 5 1 3 0 2 -1 0 4 -17 15 -12 13 -13 14 1 0 -7 9 -7 9 -2 4 -2 5 -1 4 0 3 0 3 2 4 1 1 1 2 2 0 2 1 2 -1 3 0 7 -3 8 -5 8 -5 9 -7 10 -8 20 -17 -1 0 23 -21 20 -19 9 -7 7 -6 5 -4 2 -1 1 0 0 2 -4 5 -5 6 -15 13 -15 16 -8 8 -8 9 2 0 -7 9 -3 4 -3 5 -2 5 -2 4 -1 5 0 4 0 3 0 2 1 1 1 1 2 1 2 0 2 0 3 -1 6 -3 9 -4 8 -5 15 -10 9 -5 0 0 -1 1 -1 2 0 1 -1 3 -1 4 -2 9 1 2 0 1 1 1 1 1 3 2 3 0 5 0 4 -1 5 -2 5 -2 11 -5 10 -6 11 -7 9 -7 8 -7 7 -7 -1 0 3 -4 3 -4 -2 -1 -2 -1 -4 5 -7 6 1 0 -12 9 -13 9 -7 4 -6 4 -5 2 -4 0 -1 0 -1 -1 -2 -2 2 -4 2 -4 3 -4 3 -3 11 -11 -1 0 22 -22 24 -23 9 -10 8 -9 5 -6 2 -2 0 -1 0 -2 0 -1 -1 -1zm-277 83l0 0zm0 0l-5 5 -6 6 -8 7 -8 5 -9 5 -7 3 -3 1 -2 0 -3 0 -2 -1 -1 0 -1 -1 -1 -3 0 -2 1 -4 1 -3 1 -3 2 -3 4 -6 4 -5 5 -7 -1 0 15 -17 9 -11 9 -9 15 -14 8 -7 8 -6 3 -2 4 -2 3 -1 2 -1 2 1 2 0 1 1 0 2 0 2 0 2 -2 0 -2 2 -4 2 -2 2 -3 2 -4 5 -4 6 -5 6 -4 7 -4 8 -3 7 -2 8 -1 8 1 0 0 1 -3 4zm-1022 -12l8 -6 15 -14 14 -14 14 -15 26 -29 14 -14 13 -14 15 -13 5 -5 4 -4 3 -4 1 -1 0 -2 0 -2 -1 -1 -3 0 -6 1 -6 2 -7 4 -8 4 -8 6 -9 7 -9 8 -10 10 -23 25 -25 27 -13 13 -13 13 -14 13 -13 12 1 0 -9 7 -6 4 -6 4 -14 8 -14 7 -15 6 -13 4 -12 4 -9 2 -6 1 -12 2 -7 0 -11 0 -4 -1 -9 -1 -10 -2 -12 -3 -7 -2 -5 -2 -6 -2 -5 -3 -4 -3 -3 -3 -2 -3 0 -3 -1 -2 1 -2 0 -2 3 -4 2 -4 1 -2 0 -3 0 -3 -2 0 -2 -3 -2 -2 -3 -2 -2 0 -2 0 -2 0 -2 0 -3 2 -3 2 -2 4 2 0 -1 2 -1 3 0 5 0 3 0 4 1 2 1 3 4 5 4 5 5 4 6 3 6 4 7 3 13 4 13 3 10 2 7 0 7 1 15 0 9 -1 10 0 10 -2 8 -1 11 -3 13 -4 13 -4 14 -5 13 -6 11 -6 10 -5 8 -5 10 -7 11 -8 -2 0 7 -6zm1457 -185l-92 106 5 5 90 -104 2 -3 -5 -4zm-1616 124l2 5 3 4 3 5 4 3 4 4 4 3 5 3 5 2 9 4 9 3 4 0 4 0 7 0 9 -1 9 -1 11 -2 11 -3 12 -3 12 -4 11 -4 12 -5 10 -6 10 -6 4 -3 4 -4 4 -3 4 -4 2 -4 3 -4 2 -5 1 -4 1 -5 0 -5 0 -3 0 -3 -1 -4 -1 -3 -4 -6 -4 -5 -6 -5 -6 -4 -3 -1 -3 -1 -4 -1 -3 0 -17 -1 -5 1 -6 1 -7 1 -12 3 -17 4 -8 3 -9 4 -9 4 -9 4 -8 5 -6 5 -6 5 -3 3 -2 3 -2 3 -1 3 -1 3 0 4 0 1 1 1 1 2 5 -6 5 -6 5 -6 7 -5 6 -5 7 -5 7 -4 7 -4 7 -3 7 -3 7 -2 8 -2 7 -2 6 -1 6 -1 6 0 5 0 5 0 7 1 7 2 7 2 5 3 2 2 1 2 3 4 1 4 1 6 0 6 0 4 -1 4 -1 3 -1 4 -3 4 -2 3 -3 3 -3 4 -7 6 -9 5 -9 5 -9 4 -10 4 -9 4 -10 3 -9 2 -8 2 -8 1 -6 1 -5 0 -6 0 -5 -1 -6 -1 -5 -1 -5 -2 -4 -3 -5 -3 -4 -3 -4 -3 -3 -4 -3 -4 -3 -5 -2 -5 -1 -6 -1 -6 0 -6 0 -5 1 -5 2 -5 2 -5 2 -5 3 -4 4 -4 4 -4 4 -4 5 -4 10 -6 11 -6 12 -6 12 -4 12 -4 11 -4 12 -3 19 -3 14 -2 6 -1 5 0 7 0 17 2 16 2 138 28 7 2 12 1 12 0 6 0 5 -1 7 -2 7 -3 7 -5 8 -4 7 -6 7 -6 7 -5 4 -5 -3 -3 -7 5 -5 4 -7 4 -7 5 -7 3 -8 3 -4 1 -3 0 -8 0 -8 -1 -7 -2 -17 -3 -28 -7 -36 -8 -19 -3 -19 -3 -15 -3 -14 -1 -14 0 -12 0 -17 0 -6 0 -5 0 -7 1 -9 2 -12 2 -13 3 -14 5 -14 4 -15 6 -15 7 -14 7 -7 4 -6 4 -6 5 -6 4 -5 5 -4 5 -5 5 -3 5 -3 6 -2 6 -1 6 -1 6 0 11 1 5 1 5zm744 -3l-2 -3 -3 -2 -2 -1 -2 -1 -6 1 -7 1 -7 2 -6 3 -7 3 -6 4 -6 4 -6 4 -5 5 -6 5 -9 9 -8 9 -6 7 -5 8 -3 6 -4 7 2 0 -3 6 -2 6 -2 6 -1 9 -1 7 0 4 0 3 1 3 1 2 2 2 3 2 4 0 3 0 5 -1 5 -2 5 -3 11 -6 11 -8 11 -8 8 -7 6 -6 1 -2 1 -2 0 -1 -1 -1 -1 -2 -1 0 -1 0 -7 6 -7 6 -8 7 -9 7 -10 6 -5 2 -4 2 -4 1 -4 1 0 0 -2 -1 -1 -1 0 -2 0 -5 2 -4 3 -6 3 -5 3 -5 4 -4 3 -4 3 -3 -1 0 12 -4 9 -2 7 -3 6 -3 8 -5 8 -6 9 -7 9 -8 3 -4 3 -4 3 -4 2 -3 2 -4 0 -4 0 -3 0 -3 -1 -3zm-11 10l0 0zm0 0l-2 4 -2 4 -2 3 -3 4 -4 4 -8 8 -8 6 -7 6 -7 4 -4 2 -2 1 -4 2 -4 0 -2 0 6 -7 8 -11 7 -8 7 -8 8 -8 8 -7 3 -3 3 -2 3 -1 2 -1 2 0 0 1 2 1 0 2 0 1 0 3zm-826 8l3 -3 -6 -4 -51 60 1 0 -40 46 6 4 44 -51 -1 0 44 -52zm1205 52l5 -5 -3 -5 -4 3 -8 8 1 0 -14 11 -8 7 -8 6 -8 5 -7 5 -7 2 -2 1 -3 0 -2 0 -1 -1 -1 -2 0 -2 1 -2 1 -2 5 -8 14 -21 -1 0 20 -26 5 -6 6 -8 15 -19 15 -16 5 -5 3 -2 6 -3 6 -3 12 -5 13 -4 13 -5 7 -3 5 -2 11 -6 13 -7 12 -9 6 -5 6 -5 5 -5 5 -5 5 -5 4 -6 3 -6 2 -6 2 -6 0 -6 0 -4 -2 -3 -1 -2 -1 -1 -2 -1 -3 -1 -4 1 -4 0 -5 2 -5 1 -10 4 -11 6 -11 7 -11 8 -12 8 -11 9 -12 9 -10 10 -21 18 -31 29 -3 1 -5 2 -13 3 -13 3 -7 2 -2 0 -1 0 -1 -1 -1 -1 -1 -1 0 -1 1 -2 3 -4 12 -14 17 -18 20 -20 52 -53 0 -2 0 0 -1 0 -5 0 -5 0 -5 1 -6 3 -6 2 -6 4 -6 3 -13 9 -12 8 -12 7 -6 3 -5 2 -6 2 -4 0 -4 0 -3 -1 -2 -1 -2 -1 -2 -1 -1 -3 -1 -3 1 -3 1 -4 2 -4 1 -3 -1 -2 -1 -3 -1 -2 -1 -2 -4 -3 -4 -4 -5 -2 -5 -2 -4 -1 -4 0 -35 0 -7 0 -8 1 -10 2 -12 3 -12 4 -13 5 -13 5 -13 6 -13 7 -12 7 -11 8 -5 4 -4 5 -5 4 -4 5 -3 5 -3 5 -2 5 -2 5 -1 6 0 5 0 12 0 5 2 5 2 4 2 5 3 3 4 3 4 4 5 2 4 2 5 2 9 3 9 2 8 1 20 0 5 -1 7 0 7 -2 9 -2 10 -3 9 -3 11 -3 10 -5 10 -4 9 -6 9 -6 7 -6 3 -4 3 -4 3 -3 2 -4 2 -4 1 -5 1 -4 0 -4 0 -4 -1 -5 -2 -3 -2 -4 -3 -2 -3 -3 -4 -2 -3 -3 -8 -3 -8 -2 -6 -1 -6 -1 -18 0 -3 1 -5 0 -13 4 -16 5 -9 3 -8 4 -9 4 -8 4 -8 5 -6 5 -6 5 -4 5 -2 3 -1 3 -1 3 0 3 0 2 1 1 3 -3 3 -4 4 -4 4 -4 6 -5 6 -4 14 -9 7 -4 8 -4 7 -3 8 -3 8 -3 7 -2 7 -1 7 0 12 -1 6 0 7 1 6 2 6 3 3 2 2 2 2 3 2 3 2 3 1 4 1 4 0 4 0 4 -1 4 -1 4 -2 3 -2 4 -2 3 -4 4 -3 3 -7 5 -8 6 -9 4 -9 4 -10 4 -9 3 -19 4 -14 3 -10 1 -8 -1 -9 -2 -10 -3 -5 -2 -5 -2 -4 -3 -5 -3 -4 -4 -3 -3 -3 -5 -2 -4 -1 -5 -1 -6 1 -6 0 -5 2 -6 2 -5 2 -5 3 -5 3 -4 4 -5 4 -4 4 -4 9 -8 10 -6 11 -6 11 -5 11 -5 11 -4 11 -3 9 -3 9 -2 13 -2 18 -2 8 -1 6 0 5 0 5 1 5 1 4 2 2 1 1 2 1 2 0 2 -2 9 -1 9 0 3 2 3 3 3 3 3 4 2 4 2 4 1 3 0 5 0 4 0 8 -2 8 -2 7 -3 11 -6 5 -1 3 -1 1 0 0 2 -9 8 -10 8 -8 7 -9 8 -10 10 -9 10 -20 21 -10 10 -10 9 -11 8 -6 4 -5 3 -14 7 -14 8 -1 1 0 2 1 1 2 1 10 -3 11 -6 17 -8 -10 12 -11 11 -11 11 -12 11 1 0 -12 8 -12 8 -13 8 -13 6 -13 5 -13 4 -13 3 -6 1 -7 1 -18 1 -4 0 -5 -1 -8 0 -10 -1 -11 -2 -6 -2 -5 -1 -5 -2 -5 -3 -4 -2 -2 -3 -2 -4 -1 -2 0 -2 1 -3 1 -2 1 -3 2 -3 4 -4 1 -3 1 -2 0 -1 -2 0 -1 -2 -2 -1 -2 -2 -2 -2 -6 -2 -4 -1 -3 2 -2 2 -2 3 -2 4 2 0 -1 2 0 3 0 6 2 5 2 5 3 5 4 4 5 4 5 3 5 3 6 2 6 2 11 4 11 2 10 0 23 0 8 0 7 -1 8 -1 8 -1 9 -2 9 -3 17 -6 9 -3 9 -5 9 -4 9 -4 18 -10 17 -11 -1 0 9 -7 10 -7 9 -8 9 -7 8 -8 7 -8 7 -9 6 -8 5 -2 12 -3 14 -3 5 -1 4 0 1 1 0 2 0 1 -1 2 -4 5 -14 17 -8 10 -8 11 -8 11 -7 12 1 0 -3 6 -3 7 -2 7 -1 6 0 3 0 2 0 4 1 3 1 4 1 1 2 1 1 1 2 1 5 1 4 0 5 -1 6 -1 5 -3 6 -3 5 -3 6 -4 11 -8 10 -9 9 -8 7 -8 -1 0zm30 -95l0 0zm0 0l1 -1 2 -3 4 -6 13 -11 14 -14 16 -13 16 -14 15 -12 14 -9 10 -7 4 -2 2 0 3 0 2 1 2 1 0 4 0 2 -1 3 -3 5 -3 6 -6 6 -6 6 -7 7 -8 6 -8 6 -17 11 -17 10 -15 8 -11 6 -16 4 0 0zm-509 107l0 -1 -1 -1 -2 -2 -10 9 -13 11 -7 5 -6 4 -6 3 -2 0 -2 1 -1 -1 -2 -1 -1 -2 0 -2 0 -2 2 -2 6 -8 19 -23 -2 0 20 -24 6 -7 10 -13 6 -7 4 -7 3 -5 1 -3 0 -1 0 -2 -1 -2 -1 -1 -4 -1 -5 0 -4 0 -4 1 -15 18 -17 21 -9 10 -8 10 -8 8 -7 6 1 0 -5 2 -2 1 -3 0 -2 0 -1 0 0 -1 0 -1 1 -2 -2 0 10 -17 5 -10 2 -4 0 -3 0 -3 -1 -2 -2 -1 -2 -1 -3 1 -2 0 -2 2 -3 2 -4 4 -5 6 -5 6 -4 7 -8 14 2 0 -6 11 -3 6 -7 6 -8 6 -8 5 -8 3 -2 -2 0 -2 0 -2 1 -3 5 -7 7 -10 9 -12 -1 0 15 -18 15 -19 23 -29 1 -6 -2 0 -3 0 -7 0 -11 1 -27 29 -19 20 -11 11 -12 12 1 0 -12 10 -14 12 -6 5 -5 3 -4 3 -3 1 -6 0 0 -1 0 -2 0 -2 2 -3 6 -7 18 -20 -1 0 13 -15 6 -8 7 -8 5 -8 4 -7 3 -7 1 -3 1 -3 -1 -3 -1 -3 -2 -4 -1 -2 -1 -1 -3 -1 -4 -1 -6 -1 -5 0 -5 2 -6 3 -6 4 -5 4 -6 5 -6 6 -6 6 -11 13 -10 12 -16 21 1 0 -5 6 -11 11 9 -16 0 -2 -2 0 2 -4 1 -3 0 -2 -1 -2 0 -1 -1 -1 -2 0 -2 0 -1 0 -2 1 -6 3 -7 4 -9 6 1 0 -39 25 -9 6 -8 5 -7 3 -2 0 -2 1 -2 -1 -1 -1 0 -1 0 -2 0 -4 2 -3 3 -7 4 -8 5 -7 8 -2 16 -5 0 0 6 -2 10 -4 9 -4 9 -5 8 -6 3 -3 4 -3 3 -4 3 -4 2 -4 2 -5 2 -5 1 -6 1 -3 -1 -3 -1 -3 -2 -4 -3 -2 -4 -2 -5 -1 -5 1 -9 2 -9 4 -9 4 -7 5 -8 6 -6 6 -13 13 -9 10 -8 9 -5 8 -4 6 -11 1 1 -2 -1 0 4 -6 3 -5 3 -6 1 -4 2 -5 1 -4 1 -5 0 -5 0 -5 -1 -5 -2 -5 -2 -3 -1 -2 -4 -4 -4 -4 -5 -2 -5 -2 -4 -1 -4 0 -3 0 -6 0 -6 2 -5 2 -7 4 2 3 1 1 1 0 4 -3 4 -2 5 -2 7 0 4 0 4 2 3 3 2 3 3 4 1 4 1 4 1 5 -1 4 -1 5 -3 5 -3 5 -3 6 -5 6 -5 6 -5 7 1 0 -8 8 -9 9 -9 8 -10 7 -9 6 -8 4 -5 2 -3 1 -4 1 -3 0 -3 0 -2 -1 -3 -2 -2 -1 -2 -3 -1 -2 -1 -2 0 -2 -1 -6 1 -4 1 -4 1 -3 2 -4 3 -3 3 -4 3 -3 4 -3 -1 0 4 -3 5 -3 10 -6 11 -5 11 -5 17 -6 9 -3 -2 -3 -2 0 -1 -1 -6 1 -8 2 -9 3 -10 4 -11 5 -10 6 -5 3 -5 4 -4 3 -4 5 1 0 -3 3 -3 3 -3 4 -2 4 -1 4 -2 4 0 5 -1 4 0 3 1 3 1 3 1 3 1 2 1 2 2 1 2 1 4 3 5 1 5 1 6 0 7 -1 8 -1 7 -3 7 -2 7 -4 6 -4 7 -3 6 -5 10 -8 9 -7 7 -7 7 -1 6 0 -2 4 -2 4 -2 5 -2 9 0 5 0 3 1 4 1 2 1 3 2 2 3 1 3 2 3 0 4 0 4 -1 3 -1 4 -2 8 -3 7 -5 15 -10 6 -4 7 -4 0 1 -1 2 -1 1 0 1 -2 5 -2 5 0 5 0 2 0 1 1 2 1 2 2 1 3 2 4 1 3 0 4 -1 4 -1 5 -2 4 -3 4 -4 5 -5 30 -38 -1 0 20 -23 9 -11 10 -10 9 -9 8 -7 7 -5 3 -2 4 -2 1 2 1 3 0 2 -1 3 -2 3 -2 3 -6 8 -7 8 -16 18 -9 10 -8 10 1 0 -7 10 -4 5 -2 5 -3 5 -2 5 -1 5 0 4 0 3 1 3 1 2 1 2 2 1 2 0 5 0 5 -1 6 -2 5 -3 6 -3 6 -3 10 -8 10 -8 9 -7 11 -10 -3 5 -3 5 -2 7 -2 6 0 6 0 6 0 2 2 4 1 2 1 2 2 1 2 0 5 0 5 -2 5 -1 4 -3 5 -3 5 -3 9 -7 9 -7 10 -6 4 -3 5 -2 4 -1 5 -1 7 1 2 0 -1 3 -2 5 -2 8 -1 4 0 4 1 4 1 3 1 2 2 2 2 2 3 2 3 0 3 0 3 -2 4 -2 4 -2 9 -6 10 -8 16 -13 8 -7 0 -1zm-319 -20l0 0zm0 0l6 -7 20 -20 11 -11 10 -10 8 -7 2 -1 2 -1 2 -1 1 0 1 1 1 1 0 0 0 3 0 3 -1 5 -1 4 -3 5 -2 4 -4 5 -4 4 -4 4 -7 5 -8 4 -7 4 -7 3 -12 4 -6 2 2 -3z"/></svg>
